<svg id="Layer_4" data-name="Layer 4" xmlns="http://www.w3.org/2000/svg" width="300" height="282.80887" viewBox="0 0 300 282.80887">
  <defs>
    <style>
      .cls-1 {
        fill: #1d1d1b;
      }
    </style>
  </defs>
  <path class="cls-1" d="M204.96269,0C89.35507,18.85393,89.9274,95.89235,107.14037,142.00208S73.65529,275.64164,18.70648,252.77474c47.44028,66.55291,182.78662,9.87482,152.48448-90.95092S167.65489,56.08328,204.96269,0Z"/>
  <path class="cls-1" d="M235.56069,36.86438c47.17732-1.26152,53.14584,55.375,52.68768,65.17584s-12.8283,38.096-52.68768,37.17963-47.18985-38.69492-48.10615-51.16846S198.90838,37.84447,235.56069,36.86438Z"/>
  <path class="cls-1" d="M191.34808,19.20028c-14.19085,19.05928,10.94212,28.63063,33.31409,19.15715s13.17736,42.745,13.17736,42.745-8.45944,64.08662-24.37645,52.69178-29.22759-24.70543-38.10131-14.46652-6.39786,38.05207-2.00439,50.76665-8.57581,38.99444-8.57581,38.99444L127.23891,71.88737l26.62116-40.95563Z"/>
</svg>
