<svg xmlns="http://www.w3.org/2000/svg" width="296.42705" height="281.9475" viewBox="0 0 296.42705 281.9475">
  <defs>
    <style>
      .cls-1 {
        fill: #1d1d1b;
      }
    </style>
  </defs>
  <g id="Layer_2" data-name="Layer 2">
    <path class="cls-1" d="M245.56132,36.86438c47.17732-1.26152,53.14584,55.375,52.68768,65.17584s-12.8283,38.096-52.68768,37.17963-47.18985-38.69492-48.10615-51.16846S208.909,37.84447,245.56132,36.86438Z" transform="translate(-1.84507)"/>
  </g>
  <g id="Layer_4" data-name="Layer 4">
    <path class="cls-1" d="M214.96332,0C99.3557,18.85393,99.928,95.89235,117.141,142.00208S111.198,298.50853,30.65188,203.628C48.058,351.40956,211.49373,262.64956,181.19159,161.82382S177.65552,56.08328,214.96332,0Z" transform="translate(-1.84507)"/>
    <path class="cls-1" d="M49.99818,7.51285c16.13032-.43133,27.44328,5.9057,35.3291,14.82493a61.53875,61.53875,0,0,1,10.18754,16.4906c6.1889,14.38649,7.38576,29.267,7.171,33.8603-.45815,9.80088-12.8283,38.096-52.68768,37.17963S2.80833,71.17339,1.892,58.69985,13.34587,8.49294,49.99818,7.51285Z" transform="translate(-1.84507)"/>
    <path class="cls-1" d="M201.34871,19.20028c-14.19085,19.05928,10.94212,28.63063,33.31409,19.15715s13.17736,42.745,13.17736,42.745-8.45944,64.08662-24.37645,52.69178-29.22759-24.70543-38.10131-14.46652-6.39786,38.05207-2.00439,50.76665-8.57581,38.99444-8.57581,38.99444L137.23954,71.88737,163.8607,30.93174Z" transform="translate(-1.84507)"/>
    <path class="cls-1" d="M140.30692,29.68878c-26.37859,16.94262-54.97964-7.351-54.97964-7.351L62.05119,102.6041s-5.757,9.46681,5.31043,5.58664,39.40766-1.89246,44.2514,15.02039S140.30692,29.68878,140.30692,29.68878Z" transform="translate(-1.84507)"/>
  </g>
</svg>
