<?xml version="1.0" encoding="UTF-8" standalone="no"?>
<svg
   viewBox="0 0 1748.657 3031.526"
   width="1748.6571"
   height="3031.5259"
   version="1.1"
   id="svg10"
   xmlns="http://www.w3.org/2000/svg"
   xmlns:svg="http://www.w3.org/2000/svg">
  <desc
     id="desc1">ABox (2).dxf - scale = 1.000000, origin = (0.000000, 0.000000), method = manual</desc>
  <defs
     id="defs4" />
  <g
     id="g10"
     transform="translate(-37.296651,1946.3031)">
    <path
       d="M 38.171717,1084.7229 H 416.12598 V 1046.931 H 38.171717 Z"
       style="fill:none;stroke:#000000"
       id="path5" />
    <text
       x="106.79018"
       y="1070.3838"
       style="font-size:22.68px;line-height:125%;font-family:Arial;text-anchor:start;fill:#ff0000"
       id="text5"><tspan
         dx="0"
         dy="0"
         id="tspan5"
         x="106.79018"
         y="1070.3838">100.0mm, burn:0.10mm</tspan></text>
    <path
       style="fill:none;stroke:#000000"
       d="m 37.796651,471.30743 v 141.73228 0.0643 l 0.109607,0.2041 0.197669,0.1096 h 0.06765 14.739779 0.03628 l 0.119811,-0.0605 -0.0155,-0.0832 -0.08844,-0.0189 -0.05216,0.12095 v 0.0416 282.7064 0.0359 l 0.05216,0.12019 0.08844,-0.0147 0.0155,-0.0892 -0.119811,-0.0521 h -0.03628 -14.739779 -0.06765 l -0.197669,0.10922 -0.109607,0.20259 v 0.068 141.72964 0.062 l 0.109607,0.2033 0.197669,0.1145 h 0.06765 15.12 1.4e-4 209.760373 0.0627 l 0.20258,-0.1145 0.11452,-0.2033 v -0.062 -14.7394 -0.042 l -0.0575,-0.1198 -0.0877,0.021 -0.0163,0.083 0.12019,0.058 h 0.0412 418.76901 0.0378 l 0.12095,-0.058 -0.0151,-0.083 -0.0907,-0.021 -0.0529,0.1198 v 0.042 14.7394 0.062 l 0.1096,0.2033 0.2041,0.1145 h 0.068 209.76756 15.11433 0.0605 l 0.20409,-0.1145 0.11339,-0.2033 v -0.062 -141.72964 -0.068 l -0.11339,-0.20259 -0.20409,-0.10922 h -0.0605 -14.74016 -0.0416 l -0.12094,0.0521 0.0227,0.0892 0.0832,0.0147 0.0567,-0.12019 v -0.0359 -282.7064 -0.0416 l -0.0567,-0.12095 -0.0832,0.0189 -0.0227,0.0832 0.12094,0.0605 h 0.0416 14.74016 0.0605 l 0.20409,-0.1096 0.11339,-0.2041 v -0.0643 -141.73228 -0.068 l -0.11339,-0.19653 -0.20409,-0.10961 h -0.0605"
       id="path24" />
    <path
       style="fill:none;stroke:#000000"
       d="m 37.796651,-104.00885 v 141.804063 0.06425 l 0.109607,0.200315 0.197669,0.109606 h 0.06765 14.739779 0.03628 l 0.119811,-0.05669 -0.0155,-0.08315 -0.08844,-0.0189 -0.05216,0.117165 v 0.04158 282.712441 0.0378 l 0.05216,0.12094 0.08844,-0.0151 0.0155,-0.0907 -0.119811,-0.0529 h -0.03628 -14.739779 -0.06765 l -0.197669,0.10961 -0.109607,0.20031 v 0.068 141.73229 0.0643 l 0.109607,0.20409 0.197669,0.10961 h 0.06765 15.12 1.4e-4 209.760373 0.0627 l 0.20258,-0.10961 0.11452,-0.20409 v -0.0643 -14.73638 -0.0416 l -0.0575,-0.12094 -0.0877,0.0151 -0.0163,0.0869 0.12019,0.0605 h 0.0412 418.76901 0.0378 l 0.12095,-0.0605 -0.0151,-0.0869 -0.0907,-0.0151 -0.0529,0.12094 v 0.0416 14.73638 0.0643 l 0.1096,0.20409 0.2041,0.10961 h 0.068 209.76756 15.11433 0.0605 l 0.20409,-0.10961 0.11339,-0.20409 v -0.0643 -141.73229 -0.068 l -0.11339,-0.20031 -0.20409,-0.10961 h -0.0605 -14.74016 -0.0416 l -0.12094,0.0529 0.0227,0.0907 0.0832,0.0151 0.0567,-0.12094 v -0.0378 -282.712441 -0.04158 l -0.0567,-0.117165 -0.0832,0.0189 -0.0227,0.08315 0.12094,0.05669 h 0.0416 14.74016 0.0605 l 0.20409,-0.109606 0.11339,-0.200315 v -0.06425 -141.736063 -0.068"
       id="path17" />
    <path
       d="m 53.291717,-126.99213 h 209.385443 0.0363 l 0.11981,-0.0567 -0.0159,-0.0869 -0.0881,-0.0151 -0.0522,0.11717 v 0.0416 14.74016 0.0643 l 0.10961,0.20032 0.19729,0.1096 h 0.068 419.53059 0.0643 l 0.20409,-0.1096 0.10583,-0.20032 v -0.0643 -14.74016 -0.0416 l -0.0567,-0.11717 -0.0832,0.0151 -0.0189,0.0869 0.12094,0.0567 h 0.0378 209.39339 0.0605 l 0.20409,-0.11338 0.10961,-0.2041 v -0.0605 -209.3896 -0.0416 l -0.0567,-0.11717 -0.0832,0.0265 -0.0227,0.0794 0.12094,0.0529 h 0.0416 14.74016 0.0605 l 0.20409,-0.10583 0.11339,-0.20032 v -0.068 -419.53134 -0.068 l -0.11339,-0.20031 -0.20409,-0.10583 h -0.0605 -14.74016 -0.0416 l -0.12094,0.0529 0.0227,0.0945 0.0832,0.0113 0.0567,-0.12094 v -0.0378 -209.38583 -0.068 l -0.10961,-0.20031 -0.20409,-0.10583 h -0.0605 -209.39339 -0.0378 l -0.12094,0.0529 0.0189,0.0794 0.0832,0.0151 0.0567,-0.1096 v -0.0378 -14.74772 -0.068 l -0.10583,-0.20031 -0.20409,-0.10583 h -0.0643 -419.53059 -0.068 l -0.19729,0.10583 -0.10961,0.20031 v 0.068 14.74772 0.0378 l 0.0522,0.1096 0.0881,-0.0151 0.0159,-0.0794 -0.11981,-0.0529 h -0.0363 -209.385443 -0.06765 l -0.203339,0.10583 -0.109228,0.20031 v 0.068 209.38583 0.0378 l 0.05216,0.12094 0.08844,-0.0113 0.0155,-0.0945 -0.119811,-0.0529 H 52.911509 38.17173 38.10408 l -0.197669,0.10583 -0.109607,0.20031 v 0.068 419.53134 0.068 l 0.109607,0.20032 0.197669,0.10583 h 0.06765 14.739779 0.03628 l 0.119811,-0.0529 -0.0155,-0.0794 -0.08844,-0.0265 -0.05216,0.11717 v 0.0416 209.3896 0.0605 l 0.109228,0.2041 0.203339,0.11338 z"
       style="fill:none;stroke:#000000"
       id="path8" />
    <path
       style="fill:none;stroke:#000000"
       d="m 930.52001,471.30759 v 141.35433 0.034 l 0.0529,0.12095 0.0869,-0.0151 0.0189,-0.0869 -0.12094,-0.0529 h -0.0378 -14.74015 -0.068 l -0.20032,0.10582 -0.10961,0.2041 v 0.068 283.46419 0.0627 l 0.10961,0.20258 0.20032,0.1149 h 0.068 14.74015 0.0378 l 0.12094,-0.0575 -0.0189,-0.0881 -0.0869,-0.0159 -0.0529,0.11982 v 0.0416 141.34942 0.062 l 0.10961,0.2033 0.20032,0.1145 h 0.068 -3e-4 209.76376 0.064 l 0.2003,-0.1145 0.1172,-0.2033 v -0.062 -14.7394 -0.042 l -0.061,-0.1198 -0.087,0.021 -0.015,0.083 0.121,0.058 h 0.042 418.7716 0.038 l 0.1209,-0.058 -0.026,-0.083 -0.079,-0.021 -0.053,0.1198 v 0.042 14.7394 0.062 l 0.1058,0.2033 0.2003,0.1145 h 0.064 209.76 0.068 l 0.2003,-0.1145 0.121,-0.2033 v -0.062 -141.34942 -0.0416 l -0.053,-0.11982 -0.094,0.0159 -0.015,0.0881 0.1209,0.0575 h 0.042 14.7326 0.068 l 0.1966,-0.1149 0.1209,-0.20258 v -0.0627 -283.46419 -0.068 l -0.1209,-0.2041 -0.1966,-0.10582 h -0.068 -14.7326 -0.042 l -0.1209,0.0529 0.015,0.0869 0.094,0.0151 0.053,-0.12095 v -0.034 -141.35433 -0.068 l -0.121,-0.19653 -0.2003,-0.10961 h -0.068"
       id="path23" />
    <path
       style="fill:none;stroke:#000000"
       d="m 930.52001,-103.94085 v 141.358111 0.03402 l 0.0529,0.120944 0.0869,-0.01512 0.0189,-0.09071 -0.12094,-0.04913 h -0.0378 -14.74015 -0.068 l -0.20032,0.109606 -0.10961,0.200315 v 0.06803 283.464564 0.0643 l 0.10961,0.20032 0.20032,0.11716 h 0.068 14.74015 0.0378 l 0.12094,-0.0605 -0.0189,-0.0869 -0.0869,-0.0151 -0.0529,0.12094 v 0.0416 141.35056 0.0643 l 0.10961,0.20409 0.20032,0.10961 h 0.068 l -3e-4,-8e-5 h 209.76376 0.064 l 0.2003,-0.10961 0.1172,-0.20409 v -0.0643 -14.73638 -0.0416 l -0.061,-0.12094 -0.087,0.0151 -0.015,0.0869 0.121,0.0605 h 0.042 418.7716 0.038 l 0.1209,-0.0605 -0.026,-0.0869 -0.079,-0.0151 -0.053,0.12094 v 0.0416 14.73638 0.0643 l 0.1058,0.20409 0.2003,0.10961 h 0.064 209.76 0.068 l 0.2003,-0.10961 0.121,-0.20409 V 462.99213 321.64157 321.6 l -0.053,-0.12094 -0.094,0.0151 -0.015,0.0869 0.1209,0.0605 h 0.042 14.7326 0.068 l 0.1966,-0.11716 0.1209,-0.20032 v -0.0643 -283.464564 -0.06803 l -0.1209,-0.200315 -0.1966,-0.109606 h -0.068 -14.7326 -0.042 l -0.1209,0.04913 0.015,0.09071 0.094,0.01512 0.053,-0.120944 v -0.03402 -141.358111 -0.068 l -0.121,-0.19653 -0.2003,-0.10961 h -0.068"
       id="path20" />
    <rect
       style="fill:none;stroke:#000000;stroke-width:1;stroke-dasharray:none;stroke-opacity:1"
       id="rect10"
       width="565.21887"
       height="198.93178"
       x="190.2101"
       y="169.90057" />
    <rect
       style="fill:none;stroke:#000000;stroke-width:1;stroke-dasharray:none;stroke-opacity:1"
       id="rect10-8"
       width="565.21887"
       height="198.93178"
       x="190.21008"
       y="-399.03119" />
    <path
       style="fill:none;stroke:#000000;stroke-width:1;stroke-dasharray:none;stroke-opacity:1"
       d="m 93.646393,-104.09768 c 0,93.80185 51.334167,94.14502 51.334167,94.14502 0,0 601.40364,0.34317 653.79433,0 52.3907,-0.34317 52.3907,-94.14502 52.3907,-94.14502"
       id="path11" />
    <path
       style="fill:none;stroke:#000000;stroke-width:1;stroke-dasharray:none;stroke-opacity:1"
       d="m 987.60801,-104.09768 c 0,93.80185 51.33419,94.14502 51.33419,94.14502 0,0 575.4036,0.34317 627.7943,0 52.3907,-0.34317 52.3907,-94.14502 52.3907,-94.14502"
       id="path12" />
    <path
       style="fill:none;stroke:#000000;stroke-width:1;stroke-dasharray:none;stroke-opacity:1"
       d="m 94.059933,470.37812 c 0,93.80185 51.334197,94.14502 51.334197,94.14502 0,0 601.4036,0.34317 653.7943,0 52.3907,-0.34317 52.3907,-94.14502 52.3907,-94.14502"
       id="path13" />
    <path
       style="fill:none;stroke:#000000;stroke-width:1;stroke-dasharray:none;stroke-opacity:1"
       d="m 985.608,470.37812 c 0,93.80185 51.3342,94.14502 51.3342,94.14502 0,0 577.4036,0.34317 629.7943,0 52.3907,-0.34317 52.3907,-94.14502 52.3907,-94.14502"
       id="path14" />
    <path
       style="fill:none;stroke:#000000;stroke-width:1;stroke-dasharray:none;stroke-opacity:1"
       d="m 907.84241,-103.94085 -56.67682,-0.15683"
       id="path18" />
    <path
       style="fill:none;stroke:#000000;stroke-width:1;stroke-dasharray:none;stroke-opacity:1"
       d="m 37.796651,-104.00885 55.849742,-0.0888"
       id="path19" />
    <path
       style="fill:none;stroke:#000000;stroke-width:1;stroke-dasharray:none;stroke-opacity:1"
       d="m 930.52001,-103.94085 57.088,-0.15683"
       id="path21" />
    <path
       style="fill:none;stroke:#000000;stroke-width:1;stroke-dasharray:none;stroke-opacity:1"
       d="m 1719.1272,-104.09768 50.8183,-0.21731"
       id="path22" />
    <path
       style="fill:none;stroke:#000000;stroke-width:1;stroke-dasharray:none;stroke-opacity:1"
       d="m 851.57913,470.37814 55.9458,0.5552"
       id="path25" />
    <path
       style="fill:none;stroke:#000000;stroke-width:1;stroke-dasharray:none;stroke-opacity:1"
       d="M 930.52001,471.30764 985.608,470.37812"
       id="path26" />
    <path
       style="fill:none;stroke:#000000;stroke-width:1;stroke-dasharray:none;stroke-opacity:1"
       d="m 1719.1272,470.37812 50.8183,0.55532"
       id="path27" />
    <path
       style="fill:none;stroke:#000000;stroke-width:1;stroke-dasharray:none;stroke-opacity:1"
       d="m 37.796651,471.30744 56.263282,-0.9293"
       id="path28" />
    <rect
       style="fill:none;stroke:#000000;stroke-width:1;stroke-dasharray:none;stroke-opacity:1"
       id="rect29"
       width="377.95276"
       height="377.95276"
       x="1081.2731"
       y="-418.55045" />
    <rect
       style="fill:none;stroke:#000000;stroke-width:1;stroke-dasharray:none;stroke-opacity:1"
       id="rect30"
       width="151.18111"
       height="226.77165"
       x="988.10938"
       y="-721.05902" />
    <rect
       style="fill:none;stroke:#000000;stroke-width:1;stroke-dasharray:none;stroke-opacity:1"
       id="rect30-5"
       width="151.18111"
       height="226.77165"
       x="1165.2905"
       y="-721.05902" />
    <rect
       style="fill:none;stroke:#000000;stroke-width:1;stroke-dasharray:none;stroke-opacity:1"
       id="rect30-7"
       width="151.18111"
       height="226.77165"
       x="1351.4717"
       y="-721.05902" />
    <rect
       style="fill:none;stroke:#000000;stroke-width:1;stroke-dasharray:none;stroke-opacity:1"
       id="rect30-5-1"
       width="151.18111"
       height="226.77165"
       x="1528.6528"
       y="-721.05902" />
    <rect
       style="fill:none;stroke:#000000;stroke-width:1;stroke-dasharray:none;stroke-opacity:1"
       id="rect30-9"
       width="151.18111"
       height="226.77165"
       x="988.10944"
       y="-974.83069" />
    <rect
       style="fill:none;stroke:#000000;stroke-width:1;stroke-dasharray:none;stroke-opacity:1"
       id="rect30-5-0"
       width="151.18111"
       height="226.77165"
       x="1165.2905"
       y="-974.83069" />
    <rect
       style="fill:none;stroke:#000000;stroke-width:1;stroke-dasharray:none;stroke-opacity:1"
       id="rect30-7-5"
       width="151.18111"
       height="226.77165"
       x="1351.4717"
       y="-974.83069" />
    <rect
       style="fill:none;stroke:#000000;stroke-width:1;stroke-dasharray:none;stroke-opacity:1"
       id="rect30-5-1-5"
       width="151.18111"
       height="226.77165"
       x="1528.6528"
       y="-974.83069" />
    <rect
       style="fill:none;stroke:#000000;stroke-width:1;stroke-linejoin:round;stroke-dasharray:none;stroke-opacity:1"
       id="rect31"
       width="1511.811"
       height="944.8819"
       x="37.796787"
       y="-1945.8031" />
  </g>
</svg>
