<?xml version="1.0" encoding="UTF-8" standalone="no"?>
<!-- Created with Inkscape (http://www.inkscape.org/) -->

<svg
   width="47.539364mm"
   height="39.993076mm"
   viewBox="0 0 47.539364 39.993076"
   version="1.1"
   id="svg1"
   inkscape:export-filename="bitmap.svg"
   inkscape:export-xdpi="96"
   inkscape:export-ydpi="96"
   xmlns:inkscape="http://www.inkscape.org/namespaces/inkscape"
   xmlns:sodipodi="http://sodipodi.sourceforge.net/DTD/sodipodi-0.dtd"
   xmlns="http://www.w3.org/2000/svg"
   xmlns:svg="http://www.w3.org/2000/svg">
  <sodipodi:namedview
     id="namedview1"
     pagecolor="#ffffff"
     bordercolor="#000000"
     borderopacity="0.25"
     inkscape:showpageshadow="2"
     inkscape:pageopacity="0.0"
     inkscape:pagecheckerboard="0"
     inkscape:deskcolor="#d1d1d1"
     inkscape:document-units="mm">
    <inkscape:page
       x="0"
       y="0"
       width="47.539364"
       height="39.993076"
       id="page2"
       margin="0"
       bleed="0" />
  </sodipodi:namedview>
  <defs
     id="defs1" />
  <g
     inkscape:label="Layer 1"
     inkscape:groupmode="layer"
     id="layer1"
     transform="translate(3.1199446,-252.06005)">
    <path
       sodipodi:type="star"
       style="fill:none;fill-rule:evenodd;stroke:#ff0000;stroke-width:0.1;stroke-linejoin:round"
       id="path1"
       inkscape:flatsided="false"
       sodipodi:sides="5"
       sodipodi:cx="19.917459"
       sodipodi:cy="277.03375"
       sodipodi:r1="25.040442"
       sodipodi:r2="12.019412"
       sodipodi:arg1="-0.21866895"
       sodipodi:arg2="0.40964958"
       inkscape:rounded="0.07"
       inkscape:randomized="0"
       d="m 44.361614,271.60172 c 0.256134,1.1526 -12.948958,9.1362 -13.419223,10.21922 -0.470265,1.08302 2.711937,16.18222 1.6949,16.78199 -1.017038,0.59977 -12.690489,-9.49195 -13.865825,-9.60452 -1.175337,-0.11258 -14.5521765,7.57979 -15.4368735,6.79786 -0.884697,-0.78192 5.1058057,-15.00254 4.8496725,-16.15514 -0.2561332,-1.1526 -11.7056769,-11.49766 -11.2354121,-12.58068 0.4702648,-1.08303 15.8460501,0.21986 16.8630871,-0.3799 1.017038,-0.59977 7.31767,-14.68574 8.493007,-14.57316 1.175337,0.11257 4.687592,15.13843 5.572289,15.92035 0.884697,0.78192 16.228245,2.42138 16.484378,3.57398 z"
       inkscape:transform-center-x="-0.73268044"
       inkscape:transform-center-y="-1.4291497"
       transform="matrix(1.0001576,0,0,0.85779548,-0.0032737,35.847019)" />
  </g>
</svg>
