<?xml version="1.0" encoding="UTF-8" standalone="no"?>
<svg
   viewBox="0 0 106.6168 265.31046"
   width="106.61681"
   height="265.31046"
   version="1.1"
   id="svg272"
   sodipodi:docname="DXF_PCB1_2026-03-20_AutoCAD2007 (1).dxf"
   inkscape:export-filename="DXF_PCB1_2026-03-20_AutoCAD2007 (1).dxf.svg"
   inkscape:export-xdpi="96"
   inkscape:export-ydpi="96"
   xmlns:inkscape="http://www.inkscape.org/namespaces/inkscape"
   xmlns:sodipodi="http://sodipodi.sourceforge.net/DTD/sodipodi-0.dtd"
   xmlns="http://www.w3.org/2000/svg"
   xmlns:svg="http://www.w3.org/2000/svg">
  <sodipodi:namedview
     id="namedview272"
     pagecolor="#ffffff"
     bordercolor="#000000"
     borderopacity="0.25"
     inkscape:showpageshadow="2"
     inkscape:pageopacity="0.0"
     inkscape:pagecheckerboard="0"
     inkscape:deskcolor="#d1d1d1">
    <inkscape:page
       x="0"
       y="0"
       width="106.6168"
       height="265.31046"
       id="page2"
       margin="0"
       bleed="0" />
  </sodipodi:namedview>
  <desc
     id="desc1">DXF_PCB1_2026-03-20_AutoCAD2007 (1).dxf - scale = 1.000000, origin = (0.000000, 0.000000), method = manual</desc>
  <defs
     id="defs4" />
  <g
     inkscape:groupmode="layer"
     inkscape:label="Top-Layer"
     id="g262"
     transform="translate(0.47572112,-1122.0798)">
    <path
       d="m 3.779537,1130.0788 h 7.559074 z"
       style="fill:#000000"
       id="path5" />
    <path
       d="m 3.779537,1130.0788 a 3.779537,3.779537 0 0 0 7.559074,0 v 0 a 3.779537,3.779537 0 0 0 -7.559074,0"
       style="fill:none;stroke:#000000"
       id="path6" />
    <path
       d="m 94.488371,1130.0788 h 7.559079 z"
       style="fill:#000000"
       id="path7" />
    <path
       d="m 94.488371,1130.0788 a 3.7795395,3.7795395 0 0 0 7.559079,0 3.7795395,3.7795395 0 0 0 -7.559079,0 z"
       style="fill:none;stroke:#000000"
       id="path8" />
    <path
       d="m -17.846964,1381.6748 v -5.6693 l 0.323722,-2.0438 0.939476,-1.8439 1.463268,-1.4632 1.843825,-0.9395 2.043896,-0.3237 h 35.905581 l 2.043896,0.3237 1.843825,0.9395 1.463268,1.4632 0.939476,1.8439 0.323722,2.0438 v 5.6693 l -0.323722,2.0439 -0.939476,1.8439 -1.463268,1.4632 -1.843825,0.9395 -2.043896,0.3237 h -35.905581 l -2.043896,-0.3237 -1.843825,-0.9395 -1.463268,-1.4632 -0.939476,-1.8439 z"
       style="fill:#000000"
       id="path9" />
    <path
       d="m -17.846964,1381.6748 v -5.6693 l 0.323722,-2.0438 0.939476,-1.8439 1.463268,-1.4632 1.843825,-0.9395 2.043896,-0.3237 h 35.905581 l 2.043896,0.3237 1.843825,0.9395 1.463268,1.4632 0.939476,1.8439 0.323722,2.0438 v 5.6693 l -0.323722,2.0439 -0.939476,1.8439 -1.463268,1.4632 -1.843825,0.9395 -2.043896,0.3237 h -35.905581 l -2.043896,-0.3237 -1.843825,-0.9395 -1.463268,-1.4632 -0.939476,-1.8439 z"
       style="fill:none;stroke:#00ff00"
       id="path10" />
    <path
       d="M 26.456746,1343.6225 H 79.370237 Z"
       style="fill:#000000"
       id="path11" />
    <path
       d="m 26.456746,1343.6225 a 26.456746,26.456746 0 0 0 52.913491,0 26.456746,26.456746 0 0 0 -52.913491,0 z"
       style="fill:none;stroke:#00ff00"
       id="path12" />
    <path
       d="m -36.302665,1359.5948 v -5.6693 l 0.323722,-2.0439 0.939476,-1.8438 1.463268,-1.4633 1.843825,-0.9395 2.043896,-0.3237 H 6.217103 l 2.043896,0.3237 1.843825,0.9395 1.463268,1.4633 0.939476,1.8438 0.323722,2.0439 v 5.6693 l -0.323722,2.0439 -0.939476,1.8438 -1.463268,1.4633 -1.843825,0.9395 -2.043896,0.3237 h -35.905581 l -2.043896,-0.3237 -1.843825,-0.9395 -1.463268,-1.4633 -0.939476,-1.8438 z"
       style="fill:none;stroke:#00ff00"
       id="path14" />
    <path
       d="m -34.646997,1336.0748 v -5.6693 l 0.323721,-2.0439 0.939476,-1.8439 1.463268,-1.4632 1.843825,-0.9395 2.043896,-0.3237 H 7.87277 l 2.043896,0.3237 1.843826,0.9395 1.463268,1.4632 0.939476,1.8439 0.323721,2.0439 v 5.6693 l -0.323721,2.0439 -0.939476,1.8438 -1.463268,1.4632 -1.843826,0.9395 -2.043896,0.3237 h -35.905581 l -2.043896,-0.3237 -1.843825,-0.9395 -1.463268,-1.4632 -0.939476,-1.8438 z"
       style="fill:#000000"
       id="path15" />
    <path
       d="m -34.646997,1336.0748 v -5.6693 l 0.323721,-2.0439 0.939476,-1.8439 1.463268,-1.4632 1.843825,-0.9395 2.043896,-0.3237 H 7.87277 l 2.043896,0.3237 1.843826,0.9395 1.463268,1.4632 0.939476,1.8439 0.323721,2.0439 v 5.6693 l -0.323721,2.0439 -0.939476,1.8438 -1.463268,1.4632 -1.843826,0.9395 -2.043896,0.3237 h -35.905581 l -2.043896,-0.3237 -1.843825,-0.9395 -1.463268,-1.4632 -0.939476,-1.8438 z"
       style="fill:none;stroke:#00ff00"
       id="path16" />
    <path
       d="m -24.437991,1313.2109 v -5.6693 l 0.323721,-2.0439 0.939476,-1.8438 1.463268,-1.4633 1.843825,-0.9394 2.043896,-0.3238 h 35.905581 l 2.043896,0.3238 1.843826,0.9394 1.463268,1.4633 0.939476,1.8438 0.323721,2.0439 v 5.6693 l -0.323721,2.0439 -0.939476,1.8439 -1.463268,1.4632 -1.843826,0.9395 -2.043896,0.3237 h -35.905581 l -2.043896,-0.3237 -1.843825,-0.9395 -1.463268,-1.4632 -0.939476,-1.8439 z"
       style="fill:#000000;stroke:#00ff00"
       id="path17" />
    <path
       d="m -24.437991,1313.2109 v -5.6693 l 0.323721,-2.0439 0.939476,-1.8438 1.463268,-1.4633 1.843825,-0.9394 2.043896,-0.3238 h 35.905581 l 2.043896,0.3238 1.843826,0.9394 1.463268,1.4633 0.939476,1.8438 0.323721,2.0439 v 5.6693 l -0.323721,2.0439 -0.939476,1.8439 -1.463268,1.4632 -1.843826,0.9395 -2.043896,0.3237 h -35.905581 l -2.043896,-0.3237 -1.843825,-0.9395 -1.463268,-1.4632 -0.939476,-1.8439 z"
       style="fill:none;stroke:#00ff00"
       id="path18" />
    <path
       d="m -21.687067,1290.4747 v -5.6693 l 0.323721,-2.0439 0.939476,-1.8439 1.463268,-1.4632 1.843825,-0.9395 2.043896,-0.3237 H 20.8327 l 2.043896,0.3237 1.843826,0.9395 1.463268,1.4632 0.939476,1.8439 0.323721,2.0439 v 5.6693 l -0.323721,2.0439 -0.939476,1.8438 -1.463268,1.4633 -1.843826,0.9394 -2.043896,0.3238 h -35.905581 l -2.043896,-0.3238 -1.843825,-0.9394 -1.463268,-1.4633 -0.939476,-1.8438 z"
       style="fill:none;stroke:#00ff00"
       id="path20" />
    <path
       d="m -16.406961,1267.4346 v -5.6693 l 0.323722,-2.0439 0.939475,-1.8438 1.463268,-1.4633 1.843826,-0.9394 2.043896,-0.3238 h 35.905581 l 2.043896,0.3238 1.843825,0.9394 1.463268,1.4633 0.939476,1.8438 0.323721,2.0439 v 5.6693 l -0.323721,2.0439 -0.939476,1.8438 -1.463268,1.4633 -1.843825,0.9395 -2.043896,0.3237 H -9.792774 l -2.043896,-0.3237 -1.843826,-0.9395 -1.463268,-1.4633 -0.939475,-1.8438 z"
       style="fill:#000000"
       id="path21" />
    <path
       d="m -16.406961,1267.4346 v -5.6693 l 0.323722,-2.0439 0.939475,-1.8438 1.463268,-1.4633 1.843826,-0.9394 2.043896,-0.3238 h 35.905581 l 2.043896,0.3238 1.843825,0.9394 1.463268,1.4633 0.939476,1.8438 0.323721,2.0439 v 5.6693 l -0.323721,2.0439 -0.939476,1.8438 -1.463268,1.4633 -1.843825,0.9395 -2.043896,0.3237 H -9.792774 l -2.043896,-0.3237 -1.843826,-0.9395 -1.463268,-1.4633 -0.939475,-1.8438 z"
       style="fill:none;stroke:#00ff00"
       id="path22" />
    <path
       d="m -29.366987,1244.3946 v -5.6693 l 0.323722,-2.0439 0.939476,-1.8438 1.463268,-1.4633 1.843825,-0.9395 2.043896,-0.3237 h 35.905581 l 2.043896,0.3237 1.843825,0.9395 1.463268,1.4633 0.939476,1.8438 0.323722,2.0439 v 5.6693 l -0.323722,2.0439 -0.939476,1.8438 -1.463268,1.4633 -1.843825,0.9394 -2.043896,0.3238 H -22.7528 l -2.043896,-0.3238 -1.843825,-0.9394 -1.463268,-1.4633 -0.939476,-1.8438 z"
       style="fill:#000000"
       id="path23" />
    <path
       d="m -29.366987,1244.3946 v -5.6693 l 0.323722,-2.0439 0.939476,-1.8438 1.463268,-1.4633 1.843825,-0.9395 2.043896,-0.3237 h 35.905581 l 2.043896,0.3237 1.843825,0.9395 1.463268,1.4633 0.939476,1.8438 0.323722,2.0439 v 5.6693 l -0.323722,2.0439 -0.939476,1.8438 -1.463268,1.4633 -1.843825,0.9394 -2.043896,0.3238 H -22.7528 l -2.043896,-0.3238 -1.843825,-0.9394 -1.463268,-1.4633 -0.939476,-1.8438 z"
       style="fill:none;stroke:#00ff00"
       id="path24" />
    <path
       d="m -33.686995,1221.3545 v -5.6693 l 0.323721,-2.0439 0.939476,-1.8438 1.463268,-1.4633 1.843825,-0.9394 2.043896,-0.3238 H 8.832772 l 2.043896,0.3238 1.843826,0.9394 1.463268,1.4633 0.939476,1.8438 0.323721,2.0439 v 5.6693 l -0.323721,2.0439 -0.939476,1.8439 -1.463268,1.4632 -1.843826,0.9395 -2.043896,0.3237 h -35.905581 l -2.043896,-0.3237 -1.843825,-0.9395 -1.463268,-1.4632 -0.939476,-1.8439 z"
       style="fill:#000000"
       id="path25" />
    <path
       d="m -33.686995,1221.3545 v -5.6693 l 0.323721,-2.0439 0.939476,-1.8438 1.463268,-1.4633 1.843825,-0.9394 2.043896,-0.3238 H 8.832772 l 2.043896,0.3238 1.843826,0.9394 1.463268,1.4633 0.939476,1.8438 0.323721,2.0439 v 5.6693 l -0.323721,2.0439 -0.939476,1.8439 -1.463268,1.4632 -1.843826,0.9395 -2.043896,0.3237 h -35.905581 l -2.043896,-0.3237 -1.843825,-0.9395 -1.463268,-1.4632 -0.939476,-1.8439 z"
       style="fill:none;stroke:#00ff00"
       id="path26" />
    <path
       d="m 81.626563,1135.2077 v -4.5354 h 7.559055 v 4.5354 z"
       style="fill:#000000"
       id="path27" />
    <path
       d="m 81.626563,1135.2077 v -4.5354 h 7.559055 v 4.5354 z"
       style="fill:none;stroke:#000000"
       id="path28" />
    <path
       d="m 81.626563,1144.8078 v -4.5355 h 7.559055 v 4.5355 z"
       style="fill:#000000"
       id="path29" />
    <path
       d="m 81.626563,1144.8078 v -4.5355 h 7.559055 v 4.5355 z"
       style="fill:none;stroke:#000000"
       id="path30" />
    <path
       d="m 81.626563,1154.4078 v -4.5355 h 7.559055 v 4.5355 z"
       style="fill:#000000"
       id="path31" />
    <path
       d="m 81.626563,1154.4078 v -4.5355 h 7.559055 v 4.5355 z"
       style="fill:none;stroke:#000000"
       id="path32" />
    <path
       d="m 81.626563,1164.0078 v -4.5354 h 7.559055 v 4.5354 z"
       style="fill:#000000"
       id="path33" />
    <path
       d="m 81.626563,1164.0078 v -4.5354 h 7.559055 v 4.5354 z"
       style="fill:none;stroke:#000000"
       id="path34" />
    <path
       d="m 81.626563,1173.6078 v -4.5354 h 7.559055 v 4.5354 z"
       style="fill:#000000"
       id="path35" />
    <path
       d="m 81.626563,1173.6078 v -4.5354 h 7.559055 v 4.5354 z"
       style="fill:none;stroke:#000000"
       id="path36" />
    <path
       d="m 81.626563,1183.2078 v -4.5354 h 7.559055 v 4.5354 z"
       style="fill:#000000"
       id="path37" />
    <path
       d="m 81.626563,1183.2078 v -4.5354 h 7.559055 v 4.5354 z"
       style="fill:none;stroke:#000000"
       id="path38" />
    <path
       d="m 81.626563,1192.8079 v -4.5355 h 7.559055 v 4.5355 z"
       style="fill:#000000"
       id="path39" />
    <path
       d="m 81.626563,1192.8079 v -4.5355 h 7.559055 v 4.5355 z"
       style="fill:none;stroke:#000000"
       id="path40" />
    <path
       d="m 81.626563,1202.4079 v -4.5355 h 7.559055 v 4.5355 z"
       style="fill:#000000"
       id="path41" />
    <path
       d="m 81.626563,1202.4079 v -4.5355 h 7.559055 v 4.5355 z"
       style="fill:none;stroke:#000000"
       id="path42" />
    <path
       d="m 81.626563,1212.0079 v -4.5354 h 7.559055 v 4.5354 z"
       style="fill:#000000"
       id="path43" />
    <path
       d="m 81.626563,1212.0079 v -4.5354 h 7.559055 v 4.5354 z"
       style="fill:none;stroke:#000000"
       id="path44" />
    <path
       d="m 70.211948,1217.6391 v -7.5591 h 4.535433 v 7.5591 z"
       style="fill:#000000"
       id="path45" />
    <path
       d="m 70.211948,1217.6391 v -7.5591 h 4.535433 v 7.5591 z"
       style="fill:none;stroke:#000000"
       id="path46" />
    <path
       d="m 60.611929,1217.6391 v -7.5591 h 4.535433 v 7.5591 z"
       style="fill:#000000"
       id="path47" />
    <path
       d="m 60.611929,1217.6391 v -7.5591 h 4.535433 v 7.5591 z"
       style="fill:none;stroke:#000000"
       id="path48" />
    <path
       d="m 51.01191,1217.6391 v -7.5591 h 4.535433 v 7.5591 z"
       style="fill:#000000"
       id="path49" />
    <path
       d="m 51.01191,1217.6391 v -7.5591 h 4.535433 v 7.5591 z"
       style="fill:none;stroke:#000000"
       id="path50" />
    <path
       d="m 41.411891,1217.6391 v -7.5591 h 4.535433 v 7.5591 z"
       style="fill:#000000"
       id="path51" />
    <path
       d="m 41.411891,1217.6391 v -7.5591 h 4.535433 v 7.5591 z"
       style="fill:none;stroke:#000000"
       id="path52" />
    <path
       d="m 31.811872,1217.6391 v -7.5591 h 4.535433 v 7.5591 z"
       style="fill:#000000"
       id="path53" />
    <path
       d="m 31.811872,1217.6391 v -7.5591 h 4.535433 v 7.5591 z"
       style="fill:none;stroke:#000000"
       id="path54" />
    <path
       d="m 17.374595,1212.0079 v -4.5354 h 7.559055 v 4.5354 z"
       style="fill:#000000"
       id="path55" />
    <path
       d="m 17.374595,1212.0079 v -4.5354 h 7.559055 v 4.5354 z"
       style="fill:none;stroke:#000000"
       id="path56" />
    <path
       d="m 17.374595,1202.4079 v -4.5355 h 7.559055 v 4.5355 z"
       style="fill:#000000"
       id="path57" />
    <path
       d="m 17.374595,1202.4079 v -4.5355 h 7.559055 v 4.5355 z"
       style="fill:none;stroke:#000000"
       id="path58" />
    <path
       d="m 17.374595,1192.8079 v -4.5355 h 7.559055 v 4.5355 z"
       style="fill:#000000"
       id="path59" />
    <path
       d="m 17.374595,1192.8079 v -4.5355 h 7.559055 v 4.5355 z"
       style="fill:none;stroke:#000000"
       id="path60" />
    <path
       d="m 17.374595,1183.2078 v -4.5354 h 7.559055 v 4.5354 z"
       style="fill:#000000"
       id="path61" />
    <path
       d="m 17.374595,1183.2078 v -4.5354 h 7.559055 v 4.5354 z"
       style="fill:none;stroke:#000000"
       id="path62" />
    <path
       d="m 17.374595,1173.6078 v -4.5354 h 7.559055 v 4.5354 z"
       style="fill:#000000"
       id="path63" />
    <path
       d="m 17.374595,1173.6078 v -4.5354 h 7.559055 v 4.5354 z"
       style="fill:none;stroke:#000000"
       id="path64" />
    <path
       d="m 17.374595,1164.0078 v -4.5354 h 7.559055 v 4.5354 z"
       style="fill:#000000"
       id="path65" />
    <path
       d="m 17.374595,1164.0078 v -4.5354 h 7.559055 v 4.5354 z"
       style="fill:none;stroke:#000000"
       id="path66" />
    <path
       d="m 17.374595,1154.4078 v -4.5355 h 7.559055 v 4.5355 z"
       style="fill:#000000"
       id="path67" />
    <path
       d="m 17.374595,1154.4078 v -4.5355 h 7.559055 v 4.5355 z"
       style="fill:none;stroke:#000000"
       id="path68" />
    <path
       d="m 17.374595,1144.8078 v -4.5355 h 7.559055 v 4.5355 z"
       style="fill:#000000"
       id="path69" />
    <path
       d="m 17.374595,1144.8078 v -4.5355 h 7.559055 v 4.5355 z"
       style="fill:none;stroke:#000000"
       id="path70" />
    <path
       d="m 17.374595,1135.2077 v -4.5354 h 7.559055 v 4.5354 z"
       style="fill:#000000"
       id="path71" />
    <path
       d="m 17.374595,1135.2077 v -4.5354 h 7.559055 v 4.5354 z"
       style="fill:none;stroke:#000000"
       id="path72" />
    <path
       d="m 28.732089,1197.6644 v -2.3055 h 3.817352 v 2.3055 z"
       style="fill:#000000"
       id="path73" />
    <path
       d="m 28.732089,1197.6644 v -2.3055 h 3.817352 v 2.3055 z"
       style="fill:none;stroke:#000000"
       id="path74" />
    <path
       d="m 28.732089,1192.8644 v -2.3055 h 3.817352 v 2.3055 z"
       style="fill:#000000"
       id="path75" />
    <path
       d="m 28.732089,1192.8644 v -2.3055 h 3.817352 v 2.3055 z"
       style="fill:none;stroke:#000000"
       id="path76" />
    <path
       d="m 28.732089,1188.0644 v -2.3055 h 3.817352 v 2.3055 z"
       style="fill:#000000"
       id="path77" />
    <path
       d="m 28.732089,1188.0644 v -2.3055 h 3.817352 v 2.3055 z"
       style="fill:none;stroke:#000000"
       id="path78" />
    <path
       d="m 28.732089,1183.2644 v -2.3056 h 3.817352 v 2.3056 z"
       style="fill:#000000"
       id="path79" />
    <path
       d="m 28.732089,1183.2644 v -2.3056 h 3.817352 v 2.3056 z"
       style="fill:none;stroke:#000000"
       id="path80" />
    <path
       d="m 28.732089,1178.4644 v -2.3056 h 3.817352 v 2.3056 z"
       style="fill:#000000"
       id="path81" />
    <path
       d="m 28.732089,1178.4644 v -2.3056 h 3.817352 v 2.3056 z"
       style="fill:none;stroke:#000000"
       id="path82" />
    <path
       d="m 28.732089,1173.6645 v -2.3056 h 3.817352 v 2.3056 z"
       style="fill:#000000"
       id="path83" />
    <path
       d="m 28.732089,1173.6645 v -2.3056 h 3.817352 v 2.3056 z"
       style="fill:none;stroke:#000000"
       id="path84" />
    <path
       d="m 28.732089,1168.8645 v -2.3056 h 3.817352 v 2.3056 z"
       style="fill:#000000"
       id="path85" />
    <path
       d="m 28.732089,1168.8645 v -2.3056 h 3.817352 v 2.3056 z"
       style="fill:none;stroke:#000000"
       id="path86" />
    <path
       d="m 28.732089,1164.0644 v -2.3055 h 3.817352 v 2.3055 z"
       style="fill:#000000"
       id="path87" />
    <path
       d="m 28.732089,1164.0644 v -2.3055 h 3.817352 v 2.3055 z"
       style="fill:none;stroke:#000000"
       id="path88" />
    <path
       d="m 28.732089,1159.2644 v -2.3055 h 3.817352 v 2.3055 z"
       style="fill:#000000"
       id="path89" />
    <path
       d="m 28.732089,1159.2644 v -2.3055 h 3.817352 v 2.3055 z"
       style="fill:none;stroke:#000000"
       id="path90" />
    <path
       d="m 28.732089,1154.4644 v -2.3055 h 3.817352 v 2.3055 z"
       style="fill:#000000"
       id="path91" />
    <path
       d="m 28.732089,1154.4644 v -2.3055 h 3.817352 v 2.3055 z"
       style="fill:none;stroke:#000000"
       id="path92" />
    <path
       d="m 5.673131,1204.5394 v 2.0409 H 3.535207 v -2.0409 z"
       style="fill:#000000"
       id="path93" />
    <path
       d="m 5.673131,1204.5394 v 2.0409 H 3.535207 v -2.0409 z"
       style="fill:none;stroke:#000000"
       id="path94" />
    <path
       d="m 8.944818,1204.5394 v 2.0409 H 6.806894 v -2.0409 z"
       style="fill:#000000"
       id="path95" />
    <path
       d="m 8.944818,1204.5394 v 2.0409 H 6.806894 v -2.0409 z"
       style="fill:none;stroke:#000000"
       id="path96" />
    <path
       d="m 15.753152,1228.5394 v 2.041 h -2.137925 v -2.041 z"
       style="fill:#000000"
       id="path97" />
    <path
       d="m 15.753152,1228.5394 v 2.041 h -2.137925 v -2.041 z"
       style="fill:none;stroke:#000000"
       id="path98" />
    <path
       d="m 19.024838,1228.5394 v 2.041 h -2.137924 v -2.041 z"
       style="fill:#000000"
       id="path99" />
    <path
       d="m 19.024838,1228.5394 v 2.041 h -2.137924 v -2.041 z"
       style="fill:none;stroke:#000000"
       id="path100" />
    <path
       d="m 21.033162,1251.0995 v 2.0409 h -2.137924 v -2.0409 z"
       style="fill:#000000"
       id="path101" />
    <path
       d="m 21.033162,1251.0995 v 2.0409 h -2.137924 v -2.0409 z"
       style="fill:none;stroke:#000000"
       id="path102" />
    <path
       d="m 24.304849,1251.0995 v 2.0409 h -2.137925 v -2.0409 z"
       style="fill:#000000"
       id="path103" />
    <path
       d="m 24.304849,1251.0995 v 2.0409 h -2.137925 v -2.0409 z"
       style="fill:none;stroke:#000000"
       id="path104" />
    <path
       d="m 28.624857,1276.5395 v 2.041 h -2.137924 v -2.041 z"
       style="fill:#000000"
       id="path105" />
    <path
       d="m 28.624857,1276.5395 v 2.041 h -2.137924 v -2.041 z"
       style="fill:none;stroke:#000000"
       id="path106" />
    <path
       d="m 31.896544,1276.5395 v 2.041 H 29.75862 v -2.041 z"
       style="fill:#000000"
       id="path107" />
    <path
       d="m 31.896544,1276.5395 v 2.041 H 29.75862 v -2.041 z"
       style="fill:none;stroke:#000000"
       id="path108" />
    <path
       d="m 24.393169,1298.6196 v 2.0409 h -2.137924 v -2.0409 z"
       style="fill:#000000"
       id="path109" />
    <path
       d="m 24.393169,1298.6196 v 2.0409 h -2.137924 v -2.0409 z"
       style="fill:none;stroke:#000000"
       id="path110" />
    <path
       d="m 27.664855,1298.6196 v 2.0409 h -2.137924 v -2.0409 z"
       style="fill:#000000"
       id="path111" />
    <path
       d="m 27.664855,1298.6196 v 2.0409 h -2.137924 v -2.0409 z"
       style="fill:none;stroke:#000000"
       id="path112" />
    <path
       d="m 14.79315,1321.1796 v 2.041 h -2.137925 v -2.041 z"
       style="fill:#000000"
       id="path113" />
    <path
       d="m 14.79315,1321.1796 v 2.041 h -2.137925 v -2.041 z"
       style="fill:none;stroke:#000000"
       id="path114" />
    <path
       d="m 18.064836,1321.1796 v 2.041 h -2.137924 v -2.041 z"
       style="fill:#000000"
       id="path115" />
    <path
       d="m 18.064836,1321.1796 v 2.041 h -2.137924 v -2.041 z"
       style="fill:none;stroke:#000000"
       id="path116" />
    <path
       d="m 11.913144,1344.6996 v 2.041 H 9.77522 v -2.041 z"
       style="fill:#000000"
       id="path117" />
    <path
       d="m 11.913144,1344.6996 v 2.041 H 9.77522 v -2.041 z"
       style="fill:none;stroke:#000000"
       id="path118" />
    <path
       d="m 15.18483,1344.6996 v 2.041 h -2.137924 v -2.041 z"
       style="fill:#000000"
       id="path119" />
    <path
       d="m 15.18483,1344.6996 v 2.041 h -2.137924 v -2.041 z"
       style="fill:none;stroke:#000000"
       id="path120" />
    <path
       d="m 14.79315,1365.8197 v 2.041 h -2.137925 v -2.041 z"
       style="fill:#000000"
       id="path121" />
    <path
       d="m 14.79315,1365.8197 v 2.041 h -2.137925 v -2.041 z"
       style="fill:none;stroke:#000000"
       id="path122" />
    <path
       d="m 18.064836,1365.8197 v 2.041 h -2.137924 v -2.041 z"
       style="fill:#000000"
       id="path123" />
    <path
       d="m 18.064836,1365.8197 v 2.041 h -2.137924 v -2.041 z"
       style="fill:none;stroke:#000000"
       id="path124" />
    <path
       d="m 48.249792,1233.0295 v -4.5354 h 5.291339 v 4.5354 z"
       style="fill:#000000"
       id="path125" />
    <path
       d="m 48.249792,1233.0295 v -4.5354 h 5.291339 v 4.5354 z"
       style="fill:none;stroke:#000000"
       id="path126" />
    <path
       d="m 48.249792,1240.5886 v -4.5354 h 5.291339 v 4.5354 z"
       style="fill:#000000"
       id="path127" />
    <path
       d="m 48.249792,1240.5886 v -4.5354 h 5.291339 v 4.5354 z"
       style="fill:none;stroke:#000000"
       id="path128" />
    <path
       d="m 48.249792,1263.2658 v -4.5355 h 5.291339 v 4.5355 z"
       style="fill:#000000"
       id="path129" />
    <path
       d="m 48.249792,1263.2658 v -4.5355 h 5.291339 v 4.5355 z"
       style="fill:none;stroke:#000000"
       id="path130" />
    <path
       d="m 48.249792,1248.1476 v -4.5354 h 5.291339 v 4.5354 z"
       style="fill:#000000"
       id="path131" />
    <path
       d="m 48.249792,1248.1476 v -4.5354 h 5.291339 v 4.5354 z"
       style="fill:none;stroke:#000000"
       id="path132" />
    <path
       d="m 48.249792,1255.7067 v -4.5354 h 5.291339 v 4.5354 z"
       style="fill:#000000"
       id="path133" />
    <path
       d="m 48.249792,1255.7067 v -4.5354 h 5.291339 v 4.5354 z"
       style="fill:none;stroke:#000000"
       id="path134" />
    <path
       d="m 97.005218,1264.7779 v 8.3149 h -5.291339 v -8.3149 z"
       style="fill:#000000"
       id="path135" />
    <path
       d="m 97.005218,1264.7779 v 8.3149 h -5.291339 v -8.3149 z"
       style="fill:none;stroke:#000000"
       id="path136" />
    <path
       d="m 97.005218,1218.667 v 8.315 h -5.291339 v -8.315 z"
       style="fill:#000000"
       id="path137" />
    <path
       d="m 97.005218,1218.667 v 8.315 h -5.291339 v -8.315 z"
       style="fill:none;stroke:#000000"
       id="path138" />
    <path
       d="m 97.76122,1243.2343 0.299432,-1.3119 0.838992,-1.0521 1.212376,-0.5839 h 1.34564 l 1.21238,0.5839 0.83899,1.0521 0.29943,1.3119 v 5.2913 l -0.29943,1.3119 -0.83899,1.0521 -1.21238,0.5838 h -1.34564 l -1.212376,-0.5838 -0.838992,-1.0521 -0.299432,-1.3119 z"
       style="fill:#000000"
       id="path139" />
    <path
       d="m 97.76122,1243.2343 0.299432,-1.3119 0.838992,-1.0521 1.212376,-0.5839 h 1.34564 l 1.21238,0.5839 0.83899,1.0521 0.29943,1.3119 v 5.2913 l -0.29943,1.3119 -0.83899,1.0521 -1.21238,0.5838 h -1.34564 l -1.212376,-0.5838 -0.838992,-1.0521 -0.299432,-1.3119 z"
       style="fill:none;stroke:#000000"
       id="path140" />
    <path
       d="m 66.013956,1243.2343 0.299433,-1.3119 0.838992,-1.0521 1.212378,-0.5839 h 1.345638 l 1.212379,0.5839 0.838991,1.0521 0.299433,1.3119 v 5.2913 l -0.299433,1.3119 -0.838991,1.0521 -1.212379,0.5838 h -1.345638 l -1.212378,-0.5838 -0.838992,-1.0521 -0.299433,-1.3119 z"
       style="fill:#000000"
       id="path141" />
    <path
       d="m 66.013956,1243.2343 0.299433,-1.3119 0.838992,-1.0521 1.212378,-0.5839 h 1.345638 l 1.212379,0.5839 0.838991,1.0521 0.299433,1.3119 v 5.2913 l -0.299433,1.3119 -0.838991,1.0521 -1.212379,0.5838 h -1.345638 l -1.212378,-0.5838 -0.838992,-1.0521 -0.299433,-1.3119 z"
       style="fill:none;stroke:#000000"
       id="path142" />
    <path
       d="M 58.019636,1312.2069 H 60.0606 v 2.138 h -2.040964 z"
       style="fill:#000000"
       id="path143" />
    <path
       d="M 58.019636,1312.2069 H 60.0606 v 2.138 h -2.040964 z"
       style="fill:none;stroke:#000000"
       id="path144" />
    <path
       d="M 58.019636,1308.9353 H 60.0606 v 2.1379 h -2.040964 z"
       style="fill:#000000"
       id="path145" />
    <path
       d="M 58.019636,1308.9353 H 60.0606 v 2.1379 h -2.040964 z"
       style="fill:none;stroke:#000000"
       id="path146" />
    <path
       d="m 24.494737,1223.3052 v 3.0236 h -3.023622 v -3.0236 z"
       style="fill:#000000"
       id="path147" />
    <path
       d="m 24.494737,1223.3052 v 3.0236 h -3.023622 v -3.0236 z"
       style="fill:none;stroke:#000000"
       id="path148" />
    <path
       d="m 24.494737,1218.3909 v 3.0237 h -3.023622 v -3.0237 z"
       style="fill:#000000"
       id="path149" />
    <path
       d="m 24.494737,1218.3909 v 3.0237 h -3.023622 v -3.0237 z"
       style="fill:none;stroke:#000000"
       id="path150" />
    <path
       d="m 29.408987,1218.3909 v 3.0237 h -3.023622 v -3.0237 z"
       style="fill:#000000"
       id="path151" />
    <path
       d="m 29.408987,1218.3909 v 3.0237 h -3.023622 v -3.0237 z"
       style="fill:none;stroke:#000000"
       id="path152" />
    <path
       d="m 29.408987,1223.3052 v 3.0236 h -3.023622 v -3.0236 z"
       style="fill:#000000"
       id="path153" />
    <path
       d="m 29.408987,1223.3052 v 3.0236 h -3.023622 v -3.0236 z"
       style="fill:none;stroke:#000000"
       id="path154" />
    <path
       d="m 32.579585,1226.287 h 2.040964 v 2.9861 h -2.040964 z"
       style="fill:#000000"
       id="path155" />
    <path
       d="m 32.579585,1226.287 h 2.040964 v 2.9861 h -2.040964 z"
       style="fill:none;stroke:#000000"
       id="path156" />
    <path
       d="m 32.579585,1222.1666 h 2.040964 v 2.9862 h -2.040964 z"
       style="fill:#000000"
       id="path157" />
    <path
       d="m 32.579585,1222.1666 h 2.040964 v 2.9862 h -2.040964 z"
       style="fill:none;stroke:#000000"
       id="path158" />
    <path
       d="m 29.774748,1243.9452 v 3.0237 h -3.023622 v -3.0237 z"
       style="fill:#000000"
       id="path159" />
    <path
       d="m 29.774748,1243.9452 v 3.0237 h -3.023622 v -3.0237 z"
       style="fill:none;stroke:#000000"
       id="path160" />
    <path
       d="m 29.774748,1239.031 v 3.0236 h -3.023622 v -3.0236 z"
       style="fill:#000000"
       id="path161" />
    <path
       d="m 29.774748,1239.031 v 3.0236 h -3.023622 v -3.0236 z"
       style="fill:none;stroke:#000000"
       id="path162" />
    <path
       d="m 34.688997,1239.031 v 3.0236 h -3.023622 v -3.0236 z"
       style="fill:#000000"
       id="path163" />
    <path
       d="m 34.688997,1239.031 v 3.0236 h -3.023622 v -3.0236 z"
       style="fill:none;stroke:#000000"
       id="path164" />
    <path
       d="m 34.688997,1243.9452 v 3.0237 h -3.023622 v -3.0237 z"
       style="fill:#000000"
       id="path165" />
    <path
       d="m 34.688997,1243.9452 v 3.0237 h -3.023622 v -3.0237 z"
       style="fill:none;stroke:#000000"
       id="path166" />
    <path
       d="m 21.539563,1241.167 h 2.040964 v 2.9862 h -2.040964 z"
       style="fill:#000000"
       id="path167" />
    <path
       d="m 21.539563,1241.167 h 2.040964 v 2.9862 h -2.040964 z"
       style="fill:none;stroke:#000000"
       id="path168" />
    <path
       d="m 21.539563,1237.0467 h 2.040964 v 2.9861 h -2.040964 z"
       style="fill:#000000"
       id="path169" />
    <path
       d="m 21.539563,1237.0467 h 2.040964 v 2.9861 h -2.040964 z"
       style="fill:none;stroke:#000000"
       id="path170" />
    <path
       d="m 39.854768,1264.5853 v 3.0236 h -3.023622 v -3.0236 z"
       style="fill:#000000"
       id="path171" />
    <path
       d="m 39.854768,1264.5853 v 3.0236 h -3.023622 v -3.0236 z"
       style="fill:none;stroke:#000000"
       id="path172" />
    <path
       d="m 39.854768,1259.671 v 3.0237 h -3.023622 v -3.0237 z"
       style="fill:#000000"
       id="path173" />
    <path
       d="m 39.854768,1259.671 v 3.0237 h -3.023622 v -3.0237 z"
       style="fill:none;stroke:#000000"
       id="path174" />
    <path
       d="m 44.769018,1259.671 v 3.0237 h -3.023623 v -3.0237 z"
       style="fill:#000000"
       id="path175" />
    <path
       d="m 44.769018,1259.671 v 3.0237 h -3.023623 v -3.0237 z"
       style="fill:none;stroke:#000000"
       id="path176" />
    <path
       d="m 44.769018,1264.5853 v 3.0236 h -3.023623 v -3.0236 z"
       style="fill:#000000"
       id="path177" />
    <path
       d="m 44.769018,1264.5853 v 3.0236 h -3.023623 v -3.0236 z"
       style="fill:none;stroke:#000000"
       id="path178" />
    <path
       d="m 33.75946,1253.7225 1.443179,-1.4432 2.11155,2.1116 -1.44318,1.4432 z"
       style="fill:#000000"
       id="path179" />
    <path
       d="m 33.75946,1253.7225 1.443179,-1.4432 2.11155,2.1116 -1.44318,1.4432 z"
       style="fill:none;stroke:#000000"
       id="path180" />
    <path
       d="m 30.845948,1250.809 1.443179,-1.4432 2.11155,2.1116 -1.44318,1.4432 z"
       style="fill:#000000"
       id="path181" />
    <path
       d="m 30.845948,1250.809 1.443179,-1.4432 2.11155,2.1116 -1.44318,1.4432 z"
       style="fill:none;stroke:#000000"
       id="path182" />
    <path
       d="m 34.723711,1289.3261 v 3.0236 h -3.023622 v -3.0236 z"
       style="fill:#000000"
       id="path183" />
    <path
       d="m 34.723711,1289.3261 v 3.0236 h -3.023622 v -3.0236 z"
       style="fill:none;stroke:#000000"
       id="path184" />
    <path
       d="m 34.723711,1284.4118 v 3.0236 h -3.023622 v -3.0236 z"
       style="fill:#000000"
       id="path185" />
    <path
       d="m 34.723711,1284.4118 v 3.0236 h -3.023622 v -3.0236 z"
       style="fill:none;stroke:#000000"
       id="path186" />
    <path
       d="m 39.637961,1284.4118 v 3.0236 h -3.023622 v -3.0236 z"
       style="fill:#000000"
       id="path187" />
    <path
       d="m 39.637961,1284.4118 v 3.0236 h -3.023622 v -3.0236 z"
       style="fill:none;stroke:#000000"
       id="path188" />
    <path
       d="m 39.637961,1289.3261 v 3.0236 h -3.023622 v -3.0236 z"
       style="fill:#000000"
       id="path189" />
    <path
       d="m 39.637961,1289.3261 v 3.0236 h -3.023622 v -3.0236 z"
       style="fill:none;stroke:#000000"
       id="path190" />
    <path
       d="m 34.499589,1275.7271 h 2.040964 v 2.9861 h -2.040964 z"
       style="fill:#000000"
       id="path191" />
    <path
       d="m 34.499589,1275.7271 h 2.040964 v 2.9861 h -2.040964 z"
       style="fill:none;stroke:#000000"
       id="path192" />
    <path
       d="m 34.499589,1271.6067 h 2.040964 v 2.9862 h -2.040964 z"
       style="fill:#000000"
       id="path193" />
    <path
       d="m 34.499589,1271.6067 h 2.040964 v 2.9862 h -2.040964 z"
       style="fill:none;stroke:#000000"
       id="path194" />
    <path
       d="m 31.22243,1312.1131 v 3.0236 h -3.023622 v -3.0236 z"
       style="fill:#000000"
       id="path195" />
    <path
       d="m 31.22243,1312.1131 v 3.0236 h -3.023622 v -3.0236 z"
       style="fill:none;stroke:#000000"
       id="path196" />
    <path
       d="m 31.22243,1307.1988 v 3.0236 h -3.023622 v -3.0236 z"
       style="fill:#000000"
       id="path197" />
    <path
       d="m 31.22243,1307.1988 v 3.0236 h -3.023622 v -3.0236 z"
       style="fill:none;stroke:#000000"
       id="path198" />
    <path
       d="m 36.13668,1307.1988 v 3.0236 h -3.023622 v -3.0236 z"
       style="fill:#000000"
       id="path199" />
    <path
       d="m 36.13668,1307.1988 v 3.0236 h -3.023622 v -3.0236 z"
       style="fill:none;stroke:#000000"
       id="path200" />
    <path
       d="m 36.13668,1312.1131 v 3.0236 h -3.023622 v -3.0236 z"
       style="fill:#000000"
       id="path201" />
    <path
       d="m 36.13668,1312.1131 v 3.0236 h -3.023622 v -3.0236 z"
       style="fill:none;stroke:#000000"
       id="path202" />
    <path
       d="m 30.659581,1301.1671 h 2.040964 v 2.9862 h -2.040964 z"
       style="fill:#000000"
       id="path203" />
    <path
       d="m 30.659581,1301.1671 h 2.040964 v 2.9862 h -2.040964 z"
       style="fill:none;stroke:#000000"
       id="path204" />
    <path
       d="m 30.659581,1297.0468 h 2.040964 v 2.9862 h -2.040964 z"
       style="fill:#000000"
       id="path205" />
    <path
       d="m 30.659581,1297.0468 h 2.040964 v 2.9862 h -2.040964 z"
       style="fill:none;stroke:#000000"
       id="path206" />
    <path
       d="m 20.174728,1335.6254 v 3.0236 h -3.023622 v -3.0236 z"
       style="fill:#000000"
       id="path207" />
    <path
       d="m 20.174728,1335.6254 v 3.0236 h -3.023622 v -3.0236 z"
       style="fill:none;stroke:#000000"
       id="path208" />
    <path
       d="m 20.174728,1330.7112 v 3.0236 h -3.023622 v -3.0236 z"
       style="fill:#000000"
       id="path209" />
    <path
       d="m 20.174728,1330.7112 v 3.0236 h -3.023622 v -3.0236 z"
       style="fill:none;stroke:#000000"
       id="path210" />
    <path
       d="m 25.088978,1330.7112 v 3.0236 h -3.023622 v -3.0236 z"
       style="fill:#000000"
       id="path211" />
    <path
       d="m 25.088978,1330.7112 v 3.0236 h -3.023622 v -3.0236 z"
       style="fill:none;stroke:#000000"
       id="path212" />
    <path
       d="m 25.088978,1335.6254 v 3.0236 h -3.023622 v -3.0236 z"
       style="fill:#000000"
       id="path213" />
    <path
       d="m 25.088978,1335.6254 v 3.0236 h -3.023622 v -3.0236 z"
       style="fill:none;stroke:#000000"
       id="path214" />
    <path
       d="m 21.792735,1327.7693 v -2.0409 h 2.986182 v 2.0409 z"
       style="fill:#000000"
       id="path215" />
    <path
       d="m 21.792735,1327.7693 v -2.0409 h 2.986182 v 2.0409 z"
       style="fill:none;stroke:#000000"
       id="path216" />
    <path
       d="m 17.672407,1327.7693 v -2.0409 h 2.986182 v 2.0409 z"
       style="fill:#000000"
       id="path217" />
    <path
       d="m 17.672407,1327.7693 v -2.0409 h 2.986182 v 2.0409 z"
       style="fill:none;stroke:#000000"
       id="path218" />
    <path
       d="m 19.222406,1357.2331 v 3.0237 h -3.023622 v -3.0237 z"
       style="fill:#000000"
       id="path219" />
    <path
       d="m 19.222406,1357.2331 v 3.0237 h -3.023622 v -3.0237 z"
       style="fill:none;stroke:#000000"
       id="path220" />
    <path
       d="m 19.222406,1352.3189 v 3.0236 h -3.023622 v -3.0236 z"
       style="fill:#000000"
       id="path221" />
    <path
       d="m 19.222406,1352.3189 v 3.0236 h -3.023622 v -3.0236 z"
       style="fill:none;stroke:#000000"
       id="path222" />
    <path
       d="m 24.136656,1352.3189 v 3.0236 h -3.023622 v -3.0236 z"
       style="fill:#000000"
       id="path223" />
    <path
       d="m 24.136656,1352.3189 v 3.0236 h -3.023622 v -3.0236 z"
       style="fill:none;stroke:#000000"
       id="path224" />
    <path
       d="m 24.136656,1357.2331 v 3.0237 h -3.023622 v -3.0237 z"
       style="fill:#000000"
       id="path225" />
    <path
       d="m 24.136656,1357.2331 v 3.0237 h -3.023622 v -3.0237 z"
       style="fill:none;stroke:#000000"
       id="path226" />
    <path
       d="m 19.139558,1346.2872 h 2.040964 v 2.9862 h -2.040964 z"
       style="fill:#000000"
       id="path227" />
    <path
       d="m 19.139558,1346.2872 h 2.040964 v 2.9862 h -2.040964 z"
       style="fill:none;stroke:#000000"
       id="path228" />
    <path
       d="m 19.139558,1342.1669 h 2.040964 v 2.9862 h -2.040964 z"
       style="fill:#000000"
       id="path229" />
    <path
       d="m 19.139558,1342.1669 h 2.040964 v 2.9862 h -2.040964 z"
       style="fill:none;stroke:#000000"
       id="path230" />
    <path
       d="m 37.934764,1379.3055 v 3.0236 h -3.023622 v -3.0236 z"
       style="fill:#000000"
       id="path231" />
    <path
       d="m 37.934764,1379.3055 v 3.0236 h -3.023622 v -3.0236 z"
       style="fill:none;stroke:#000000"
       id="path232" />
    <path
       d="m 37.934764,1374.3913 v 3.0236 h -3.023622 v -3.0236 z"
       style="fill:#000000"
       id="path233" />
    <path
       d="m 37.934764,1374.3913 v 3.0236 h -3.023622 v -3.0236 z"
       style="fill:none;stroke:#000000"
       id="path234" />
    <path
       d="m 42.849014,1374.3913 v 3.0236 h -3.023622 v -3.0236 z"
       style="fill:#000000"
       id="path235" />
    <path
       d="m 42.849014,1374.3913 v 3.0236 h -3.023622 v -3.0236 z"
       style="fill:none;stroke:#000000"
       id="path236" />
    <path
       d="m 42.849014,1379.3055 v 3.0236 h -3.023622 v -3.0236 z"
       style="fill:#000000"
       id="path237" />
    <path
       d="m 42.849014,1379.3055 v 3.0236 h -3.023622 v -3.0236 z"
       style="fill:none;stroke:#000000"
       id="path238" />
    <path
       d="m 29.439451,1368.9227 1.44318,-1.4431 2.111549,2.1115 -1.443179,1.4432 z"
       style="fill:#000000"
       id="path239" />
    <path
       d="m 29.439451,1368.9227 1.44318,-1.4431 2.111549,2.1115 -1.443179,1.4432 z"
       style="fill:none;stroke:#000000"
       id="path240" />
    <path
       d="m 26.525939,1366.0092 1.44318,-1.4431 2.111549,2.1115 -1.44318,1.4432 z"
       style="fill:#000000"
       id="path241" />
    <path
       d="m 26.525939,1366.0092 1.44318,-1.4431 2.111549,2.1115 -1.44318,1.4432 z"
       style="fill:none;stroke:#000000"
       id="path242" />
    <path
       d="m 95.445887,1211.158 v -2.041 h 1.889764 v 2.041 z"
       style="fill:#000000"
       id="path243" />
    <path
       d="m 95.445887,1211.158 v -2.041 h 1.889764 v 2.041 z"
       style="fill:none;stroke:#000000"
       id="path244" />
    <path
       d="m 92.270201,1211.158 v -2.041 h 1.889763 v 2.041 z"
       style="fill:#000000"
       id="path245" />
    <path
       d="m 92.270201,1211.158 v -2.041 h 1.889763 v 2.041 z"
       style="fill:none;stroke:#000000"
       id="path246" />
    <path
       d="m 93.513307,1213.6594 v 2.041 h -2.137924 v -2.041 z"
       style="fill:#000000"
       id="path247" />
    <path
       d="m 93.513307,1213.6594 v 2.041 h -2.137924 v -2.041 z"
       style="fill:none;stroke:#000000"
       id="path248" />
    <path
       d="m 96.784994,1213.6594 v 2.041 h -2.137925 v -2.041 z"
       style="fill:#000000"
       id="path249" />
    <path
       d="m 96.784994,1213.6594 v 2.041 h -2.137925 v -2.041 z"
       style="fill:none;stroke:#000000"
       id="path250" />
    <path
       d="m 95.607071,1206.5803 v -2.0409 h 2.137924 v 2.0409 z"
       style="fill:#000000"
       id="path251" />
    <path
       d="m 95.607071,1206.5803 v -2.0409 h 2.137924 v 2.0409 z"
       style="fill:none;stroke:#000000"
       id="path252" />
    <path
       d="m 92.335385,1206.5803 v -2.0409 h 2.137924 v 2.0409 z"
       style="fill:#000000"
       id="path253" />
    <path
       d="m 92.335385,1206.5803 v -2.0409 h 2.137924 v 2.0409 z"
       style="fill:none;stroke:#000000"
       id="path254" />
    <path
       d="m 100.36777,1208.0202 h 2.04096 v 2.1379 h -2.04096 z"
       style="fill:#000000"
       id="path255" />
    <path
       d="m 100.36777,1208.0202 h 2.04096 v 2.1379 h -2.04096 z"
       style="fill:none;stroke:#000000"
       id="path256" />
    <path
       d="m 100.36777,1204.7485 h 2.04096 v 2.1379 h -2.04096 z"
       style="fill:#000000"
       id="path257" />
    <path
       d="m 100.36777,1204.7485 h 2.04096 v 2.1379 h -2.04096 z"
       style="fill:none;stroke:#000000"
       id="path258" />
    <path
       d="M 3.830408,1140.892 H 9.499709 Z"
       style="fill:#000000"
       id="path259" />
    <path
       d="m 3.830408,1140.892 a 2.8346505,2.8346505 0 0 0 5.669301,0 v 0 a 2.8346505,2.8346505 0 0 0 -5.669301,0"
       style="fill:none;stroke:#000000"
       id="path260" />
    <path
       d="M 3.830408,1150.371 H 9.499709 Z"
       style="fill:#000000"
       id="path261" />
    <path
       d="m 3.830408,1150.371 a 2.8346505,2.8346505 0 0 0 5.669301,0 v 0 a 2.8346505,2.8346505 0 0 0 -5.669301,0"
       style="fill:none;stroke:#000000"
       id="path262" />
    <rect
       style="fill:none;fill-rule:evenodd;stroke:#00ff00;stroke-width:1.93536;stroke-linejoin:round"
       id="rect272"
       width="71.81102"
       height="87.994736"
       x="17.374596"
       y="1130.6724" />
  </g>
  <g
     inkscape:groupmode="layer"
     inkscape:label="Board-Outline-Layer"
     id="g263"
     transform="translate(0.47572112,-1122.0798)">
    <path
       d="M 0.024557,1122.5798 H 105.64081 l -0.12422,224.1156 -0.36753,7.8865 -1.08131,6.7925 -1.69334,5.7791 -2.2036,4.8464 -2.612112,3.9947 -2.918858,3.2236 -3.123827,2.5332 -3.227046,1.9237 -6.356701,2.3418 -5.548436,0.8728 -5.415659,-0.077 H 36.266444 l -6.914424,-0.4301 -5.977279,-1.2581 -5.107901,-1.968 -4.306271,-2.5598 -3.572398,-3.0336 -2.906281,-3.3892 -4.08523,-7.3733 -2.233848,-7.3791 -0.924492,-6.4403 -0.089136,-6.2857 z"
       style="fill:none;stroke:#00ff00"
       id="path263" />
  </g>
  <g
     inkscape:groupmode="layer"
     inkscape:label="Hole-Layer"
     id="g271"
     transform="translate(0.47572112,-1122.0798)">
    <path
       d="m 3.779537,1130.0788 h 7.559074 z"
       style="fill:#000000"
       id="path264" />
    <path
       d="m 3.779537,1130.0788 a 3.779537,3.779537 0 0 0 7.559074,0 v 0 a 3.779537,3.779537 0 0 0 -7.559074,0"
       style="fill:none;stroke:#00ff00"
       id="path265" />
    <path
       d="m 94.488371,1130.0788 h 7.559079 z"
       style="fill:#000000"
       id="path266" />
    <path
       d="m 94.488371,1130.0788 a 3.7795395,3.7795395 0 0 0 7.559079,0 3.7795395,3.7795395 0 0 0 -7.559079,0 z"
       style="fill:none;stroke:#00ff00"
       id="path267" />
    <path
       d="m 98.706053,1243.6122 0.278505,-1.0394 0.760889,-0.7609 1.039393,-0.2785 1.0394,0.2785 0.76089,0.7609 0.2785,1.0394 v 4.5354 l -0.2785,1.0394 -0.76089,0.7609 -1.0394,0.2785 -1.039393,-0.2785 -0.760889,-0.7609 -0.278505,-1.0394 z"
       style="fill:#000000"
       id="path268" />
    <path
       d="m 98.706053,1243.6122 0.278505,-1.0394 0.760889,-0.7609 1.039393,-0.2785 1.0394,0.2785 0.76089,0.7609 0.2785,1.0394 v 4.5354 l -0.2785,1.0394 -0.76089,0.7609 -1.0394,0.2785 -1.039393,-0.2785 -0.760889,-0.7609 -0.278505,-1.0394 z"
       style="fill:none;stroke:#000000"
       id="path269" />
    <path
       d="m 66.95879,1243.6122 0.278505,-1.0394 0.760889,-0.7609 1.039394,-0.2785 1.039394,0.2785 0.760889,0.7609 0.278505,1.0394 v 4.5354 l -0.278505,1.0394 -0.760889,0.7609 -1.039394,0.2785 -1.039394,-0.2785 -0.760889,-0.7609 -0.278505,-1.0394 z"
       style="fill:#000000"
       id="path270" />
    <path
       d="m 66.95879,1243.6122 0.278505,-1.0394 0.760889,-0.7609 1.039394,-0.2785 1.039394,0.2785 0.760889,0.7609 0.278505,1.0394 v 4.5354 l -0.278505,1.0394 -0.760889,0.7609 -1.039394,0.2785 -1.039394,-0.2785 -0.760889,-0.7609 -0.278505,-1.0394 z"
       style="fill:none;stroke:#000000"
       id="path271" />
  </g>
</svg>
