<?xml version="1.0" encoding="UTF-8" standalone="no"?>
<svg
   version="1.0"
   width="538.57837pt"
   height="538.57837pt"
   viewBox="0 0 538.57837 538.57837"
   preserveAspectRatio="xMidYMid"
   id="svg20"
   sodipodi:docname="output-onlinepngtools.svg"
   inkscape:export-filename="neko.png"
   inkscape:export-xdpi="96"
   inkscape:export-ydpi="96"
   xmlns:inkscape="http://www.inkscape.org/namespaces/inkscape"
   xmlns:sodipodi="http://sodipodi.sourceforge.net/DTD/sodipodi-0.dtd"
   xmlns="http://www.w3.org/2000/svg"
   xmlns:svg="http://www.w3.org/2000/svg">
  <defs
     id="defs20" />
  <sodipodi:namedview
     id="namedview20"
     pagecolor="#ffffff"
     bordercolor="#000000"
     borderopacity="0.25"
     inkscape:showpageshadow="2"
     inkscape:pageopacity="0.0"
     inkscape:pagecheckerboard="0"
     inkscape:deskcolor="#d1d1d1"
     inkscape:document-units="pt" />
  <g
     transform="matrix(0.07442306,0,0,-0.07442306,25.789091,468.91)"
     fill="#000000"
     stroke="none"
     id="g20"
     style="opacity:0.320215;fill:#ffffff;fill-opacity:1;stroke-width:1.34367">
    <path
       d="m 1680,4725 c -449,-449 -503,-506 -490,-520 14,-13 71,41 519,489 366,366 502,508 498,520 -4,9 -10,16 -14,16 -5,0 -235,-227 -513,-505 z"
       id="path1"
       style="fill:#ffffff;fill-opacity:1;stroke-width:1.34367" />
    <path
       d="m 2380,4595 v -615 h 30 30 v 615 615 h -30 -30 z"
       id="path2"
       style="fill:#ffffff;fill-opacity:1;stroke-width:1.34367" />
    <path
       d="m 2616,4473 c -2,-3 19,-28 48,-57 29,-28 65,-73 81,-101 64,-112 93,-135 129,-99 20,20 20,66 1,104 -15,29 -81,87 -123,110 -38,19 -130,49 -136,43 z"
       id="path3"
       style="fill:#ffffff;fill-opacity:1;stroke-width:1.34367" />
    <path
       d="M 979,3996 C 808,3862 726,3671 750,3461 c 16,-140 49,-220 139,-329 31,-38 148,-132 165,-132 17,0 2,31 -23,50 -49,34 -129,150 -161,232 -92,237 -44,493 126,677 35,38 64,72 64,75 0,16 -30,2 -81,-38 z"
       id="path4"
       style="fill:#ffffff;fill-opacity:1;stroke-width:1.34367" />
    <path
       d="m 1248,4000 c -88,-68 -45,-223 62,-223 107,0 150,155 62,223 -32,26 -92,26 -124,0 z m 107,-35 c 32,-31 34,-91 4,-129 -55,-70 -150,13 -114,100 24,57 70,70 110,29 z"
       id="path5"
       style="fill:#ffffff;fill-opacity:1;stroke-width:1.34367" />
    <path
       d="m 3660,3885 v -45 h 245 c 135,0 245,-3 245,-7 0,-3 -83,-170 -185,-370 l -186,-363 h 58 58 l 163,383 c 98,231 162,395 162,415 v 32 h -280 -280 z"
       id="path6"
       style="fill:#ffffff;fill-opacity:1;stroke-width:1.34367" />
    <path
       d="m 2685,3304 c -61,-32 -95,-82 -95,-141 0,-48 39,-112 81,-133 108,-56 229,13 229,130 0,62 -28,110 -80,137 -50,27 -93,29 -135,7 z m 126,-41 c 64,-38 74,-129 20,-184 -53,-52 -112,-50 -168,6 -28,28 -33,40 -33,80 0,40 5,52 34,81 28,28 42,34 76,34 23,0 55,-8 71,-17 z"
       id="path7"
       style="fill:#ffffff;fill-opacity:1;stroke-width:1.34367" />
    <path
       d="m 1747,3283 c -4,-3 13,-28 38,-56 24,-27 63,-85 86,-128 44,-82 70,-102 97,-76 36,37 -1,126 -77,186 -44,35 -136,82 -144,74 z"
       id="path8"
       style="fill:#ffffff;fill-opacity:1;stroke-width:1.34367" />
    <path
       d="m 1190,2285 v -615 h 30 30 v 615 615 h -30 -30 z"
       id="path9"
       style="fill:#ffffff;fill-opacity:1;stroke-width:1.34367" />
    <path
       d="m 2997,2584 c -3,-4 16,-25 44,-46 69,-55 134,-152 170,-250 17,-46 37,-93 45,-105 18,-28 55,-30 79,-3 23,25 17,90 -16,157 -33,69 -140,171 -225,216 -73,38 -86,42 -97,31 z"
       id="path10"
       style="fill:#ffffff;fill-opacity:1;stroke-width:1.34367" />
    <path
       d="m 2090,2473 c -39,-21 -65,-61 -76,-116 -6,-38 -6,-38 21,-35 21,2 30,11 41,43 29,84 81,88 182,11 52,-40 84,-57 117,-61 81,-13 140,36 160,133 7,32 6,33 -20,30 -21,-2 -30,-11 -41,-43 -7,-22 -21,-46 -31,-53 -26,-20 -88,-8 -126,22 -103,85 -162,102 -227,69 z"
       id="path11"
       style="fill:#ffffff;fill-opacity:1;stroke-width:1.34367" />
    <path
       d="m 3513,1699 c -56,-16 -101,-49 -133,-97 -30,-46 -60,-127 -60,-166 0,-54 -10,-65 -61,-72 -39,-5 -49,-10 -49,-25 0,-16 8,-19 50,-19 h 50 l -2,-242 -3,-243 -45,-5 c -32,-4 -46,-10 -48,-22 -3,-17 9,-18 152,-18 149,0 156,1 156,20 0,16 -7,20 -32,20 -18,0 -43,3 -55,6 l -23,6 v 239 239 h 85 c 84,0 85,0 85,25 0,25 -1,25 -85,25 h -85 v 63 c 0,78 22,156 56,196 l 25,30 45,-34 c 66,-50 144,-45 144,10 0,57 -82,89 -167,64 z"
       id="path12"
       style="fill:#ffffff;fill-opacity:1;stroke-width:1.34367" />
    <path
       d="m 4565,1690 c -3,-5 14,-43 39,-83 106,-170 141,-307 133,-521 -6,-185 -41,-296 -147,-462 -34,-54 -36,-64 -16,-64 21,0 111,103 156,178 67,114 92,207 98,357 4,111 1,144 -17,215 -28,113 -87,230 -160,315 -63,74 -75,83 -86,65 z"
       id="path13"
       style="fill:#ffffff;fill-opacity:1;stroke-width:1.34367" />
    <path
       d="m 2303,1633 c -33,-6 -28,-27 9,-38 17,-6 40,-22 51,-36 18,-25 19,-33 7,-190 -18,-232 -18,-423 -1,-483 20,-69 73,-120 141,-136 148,-35 347,41 451,172 49,62 82,125 70,132 -5,3 -40,-25 -77,-62 -112,-112 -252,-169 -391,-160 -144,9 -165,97 -117,488 9,69 24,145 35,169 24,55 24,53 -8,86 -47,47 -114,70 -170,58 z"
       id="path14"
       style="fill:#ffffff;fill-opacity:1;stroke-width:1.34367" />
    <path
       d="m 1147,1623 c -13,-13 -7,-22 22,-28 15,-3 39,-16 51,-27 22,-20 22,-26 16,-137 -15,-284 -18,-497 -7,-537 27,-100 85,-145 196,-152 139,-9 270,44 371,150 62,64 110,141 99,158 -3,5 -36,-21 -74,-58 -70,-71 -167,-129 -253,-152 -26,-7 -82,-11 -126,-9 -89,4 -114,18 -138,76 -30,70 -5,439 37,566 11,32 17,68 13,79 -3,11 -27,33 -52,49 -35,22 -58,29 -97,29 -29,0 -55,-3 -58,-7 z"
       id="path15"
       style="fill:#ffffff;fill-opacity:1;stroke-width:1.34367" />
    <path
       d="m 5590,1578 c 1,-7 15,-22 33,-33 50,-32 48,-70 -7,-180 -95,-185 -258,-379 -438,-518 -70,-54 -96,-87 -68,-87 5,0 48,22 95,49 206,119 382,302 510,531 26,47 57,95 68,107 18,21 19,25 6,49 -7,15 -27,37 -44,49 -49,37 -155,60 -155,33 z"
       id="path16"
       style="fill:#ffffff;fill-opacity:1;stroke-width:1.34367" />
    <path
       d="m 1620,1556 c 0,-14 167,-166 179,-164 53,10 -8,105 -94,144 -45,21 -85,31 -85,20 z"
       id="path17"
       style="fill:#ffffff;fill-opacity:1;stroke-width:1.34367" />
    <path
       d="m 1515,1461 c -3,-5 8,-19 25,-31 16,-11 50,-48 76,-80 47,-60 79,-75 90,-45 9,23 -14,69 -45,92 -26,20 -125,73 -135,73 -3,0 -7,-4 -11,-9 z"
       id="path18"
       style="fill:#ffffff;fill-opacity:1;stroke-width:1.34367" />
    <path
       d="m 4353,930 c -27,-11 -43,-40 -43,-76 0,-20 13,-40 47,-71 l 46,-44 -16,-34 c -22,-47 -79,-107 -121,-130 -36,-19 -45,-38 -26,-50 14,-8 95,44 137,87 69,72 104,195 78,277 -5,18 -61,54 -77,50 -2,0 -13,-4 -25,-9 z"
       id="path19"
       style="fill:#ffffff;fill-opacity:1;stroke-width:1.34367" />
    <path
       d="m 3630,745 v -35 h 265 265 v 35 35 h -265 -265 z"
       id="path20"
       style="fill:#ffffff;fill-opacity:1;stroke-width:1.34367" />
  </g>
</svg>
