<svg xmlns="http://www.w3.org/2000/svg" width="79.02222mm" height="150mm" viewBox="0 0 224 425.19685">
  <defs>
    <style>
      .cls-1 {
        fill: none;
        stroke: #144d79;
        stroke-miterlimit: 10;
        stroke-width: 2px;
      }
    </style>
  </defs>
  <g id="_2" data-name="2">
    <g>
      <path class="cls-1" d="M79.83233,24.14612c-2.34467,39.71074-.30594,39.74968.52086,79.521.82682,39.77247,1.96044,39.7489,2.78726,79.52137.82687,39.77432-.30674,39.79788.52012,79.5722s-6.05778,40.62064,2.77332,79.411c2.54254,11.168,8.77823,6.79244,18.41561,12.982,9.63786,6.18987,10.25059,5.23583,19.88844,11.42571,9.63918,6.19073,9.02645,7.14477,18.66563,13.3355s14.03094,21.94016,19.07573,11.65478c11.15589-22.74477.82522-25.08807.57453-50.42017-.25067-25.33132-1.38448-25.32009-1.63516-50.6514-.25071-25.3348.88309-25.346.63238-50.68081s-.61833-25.3256-1.6348-50.64124c-.2398-5.97238-.68961-4.89761-4.89291-10.70838-2.02918-2.80521-5.48234-5.15739-8.758-8.18531-2.7101-2.5051-5.20067-5.86317-8.87269-8.05993-3.21152-1.92127-7.28573-2.62239-11.30361-4.00866-3.69-1.27316-6.1276-4.64334-8.66338-7.76333-2.3954-2.94728-5.28254-5.88919-6.82323-9.51236-1.60311-3.76994-1.718-8.00967-2.58384-11.46814-1.62561-6.493-2.98665-5.4885-3.23739-11.33763-.41345-9.64473.85984-9.69.58658-19.33977-.27328-9.65019-1.40668-9.61809-1.68-19.26829-.27331-9.65152.86009-9.68361.58678-19.33513s.9666-9.84126-1.6589-19.13284c-1.00558-3.55873-2.17934-2.71776-5.22566-4.81435-3.049-2.09841-3.6918-1.16438-6.74076-3.2628-3.05107-2.09985-2.82271-2.36671-5.369-5.05647C82.84354,24.82053,80.05064,20.44873,79.83233,24.14612Z"/>
      <path class="cls-1" d="M79.614,24.56059c-2.27957,1.76907-2.97473.87331-5.25429,2.64238-2.28155,1.77061-1.58639,2.66637-3.86794,4.437-2.28311,1.77183-2.97828.87607-5.26139,2.6479s-3.50477,1.1343-3.65246,4.02051c-2.034,39.74626-.97728,39.77121-.82145,79.56918.15583,39.79914,1.28968,39.7947,1.44552,79.59383.15584,39.801-.978,39.80542-.82216,79.60641s-7.00061,40.582,1.43267,79.47962c2.5054,11.5559,9.01586,7.08818,18.89716,13.58248,9.88178,6.49461,10.50453,5.54708,20.38631,12.04169,9.88315,6.49551,9.2604,7.443,19.14354,13.93855s9.31814,7.57537,20.28935,11.99133c2.50831,1.0096,2.272-.68392,4.40806-2.34164,2.13794-1.65917,1.44278-2.55493,3.58072-4.21409,2.13941-1.6603,2.83457-.76454,4.974-2.42485s1.44425-2.55606,3.58366-4.21636"/>
      <g>
        <path class="cls-1" d="M77.11976,182.312c.059.02615-.39019,1.06763-.33624,1.09774.05679.03168.71764-.88987.76834-.85346.05178.0372-.61991.9494-.575.9919.04593.04342.9255-.66987.96379-.62052.36041.46441-.59143,1.31344-.82036,2.07808-.164.5477.54581,1.62926.12628,2.24375-.34423.5042-1.64189.303-2.13422.80757-.44061.45153-.18286,1.739-.7257,2.16023-.54306.42146-1.72581-.14768-2.27113.16688-.61152.35275-.73765,1.65983-1.31093,1.86843-.70028.2548-1.57215-.701-2.14341-.67837-.7981.03165-1.85708.74164-2.21822.27629-.03849-.04959.87086-.72449.84008-.78007-.02989-.054-1.08046.36982-1.10356.31056-.02254-.05782,1.03435-.46888,1.01783-.53137-.01584-.05991-1.13625.11671-1.147.05281"/>
        <path class="cls-1" d="M70.17205,184.78868c-.409.31744-1.45584-.34291-1.86723-.10578-.46076.26558-.43876,1.503-.87116,1.66021-.52887.19232-1.2401-.79869-1.67155-.78179-.60031.02352-1.50272.78422-1.77437.43418-.27191-.35038.6891-1.03606.86148-1.61246.12337-.41256-.66089-1.34616-.34462-1.80923.25956-.38005,1.453-.05211,1.8247-.43279.33225-.34025-.04709-1.5187.36265-1.83669.409-.31744,1.45584.34291,1.86723.10578.46076-.26558.43876-1.503.87116-1.66021.52887-.19232,1.2401.7987,1.67156.78179.6003-.02352,1.50271-.78422,1.77436-.43418.27192.35039-.6891,1.03606-.86147,1.61246-.12338.41256.66088,1.34616.34462,1.80923-.25956.38-1.453.05211-1.82471.43279C70.20245,183.29224,70.5818,184.47069,70.17205,184.78868Z"/>
        <path class="cls-1" d="M77.15316,183.73388c-.63176-.47838.05272-1.38232-.579-1.8607-.63273-.47911-1.31721.42483-1.94994-.05428-.63451-.48046.05-1.3844-.58454-1.86486s-1.319.42348-1.9535-.057"/>
        <path class="cls-1" d="M66.37176,191.7281c-.30658-.73073.739-1.1694.43241-1.90013-.3073-.73244-1.35286-.29378-1.66016-1.02622-.30779-.73362.73777-1.17229.43-1.90591s-1.35336-.295-1.66115-1.02859"/>
      </g>
      <g>
        <path class="cls-1" d="M78.35723,201.72975c.06733.02981-.374,1.07523-.31246,1.10956.06475.03613.73316-.88067.791-.83914.05906.04241-.60584.96019-.55458,1.00865.05238.04951.93787-.65729.98154-.601.41095.52955-.5354,1.47171-.79644,2.34358-.187.62451.48053,1.79013.00216,2.49079-.39251.57492-1.74958.44589-2.311,1.02119-.50241.51486-.31416,1.8645-.93312,2.34485-.61923.48056-1.87938-.03671-2.50118.322-.69722.40218-.9079,1.749-1.56153,1.98681-.79852.29056-1.76237-.64513-2.41377-.61929-.91006.03611-2.05792.71749-2.46972.18686-.04389-.05655.86062-.73884.82553-.80221-.03409-.06157-1.08835.35429-1.1147.28671-.0257-.06592,1.02847-.48543,1.00964-.55668-.01807-.06832-1.14032.09961-1.15253.02675"/>
        <path class="cls-1" d="M70.4186,204.41825c-.46641.362-1.57157-.2593-2.04065.01108-.52539.30283-.56717,1.57015-1.06022,1.74944-.603.21929-1.38373-.75653-1.87569-.73726-.68449.02682-1.65376.766-1.96351.36688-.31-.39952.64675-1.15539.8433-1.81264.14078-.47074-.61131-1.46813-.2503-1.99654.29594-.43314,1.534-.15928,1.9577-.59313.37873-.3878.05168-1.613.51869-1.97545.46641-.362,1.57156.2593,2.04065-.01108.52538-.30283.56716-1.57015,1.06021-1.74944.603-.21929,1.38373.75653,1.8757.73726.68449-.02682,1.65376-.766,1.9635-.36688.31006.39953-.64675,1.1554-.8433,1.81264-.14078.47075.61132,1.46813.2503,1.99654-.29593.43315-1.534.15929-1.9577.59313C70.55855,202.83061,70.88561,204.05583,70.4186,204.41825Z"/>
        <path class="cls-1" d="M78.4755,203.21495c-.72035-.54546-.03587-1.44941-.75623-1.99488-.722-.54674-1.40653.35721-2.12857-.18953-.72321-.54763-.03873-1.45157-.76194-1.9992s-1.40769.35633-2.1309-.1913"/>
        <path class="cls-1" d="M66.2074,212.363c-.34958-.83322.696-1.27188.34641-2.1051-.35039-.83516-1.396-.3965-1.74635-1.23166-.351-.83651.69461-1.27518.34365-2.11169s-1.39652-.39784-1.74748-1.23435"/>
      </g>
      <path class="cls-1" d="M144.93258,199.57835c-.49621.34327-1.3048-.69112-2.12972-1.06019-.55683-.24912-1.75693.30978-2.37651-.20629-.50469-.42038-.23121-1.733-.73533-2.30253-.45049-.509-1.78394-.37418-2.20532-.98329-.42111-.60874.17544-1.80865-.14182-2.40933-.35525-.67261-1.68-.87956-1.89547-1.50012-.26475-.76252.68132-1.689.64466-2.29839-.05426-.90165-.737-2.02284-.24095-2.366.49621-.34327,1.30479.69111,2.12972,1.06019.55682.24912,1.75692-.30978,2.37651.20629.50469.42038.23121,1.733.73533,2.30252.45049.509,1.78394.37419,2.20531.9833.42112.60873-.17543,1.80865.14183,2.40933.35525.67261,1.68.87955,1.89546,1.50012.26475.76252-.68132,1.689-.64465,2.29839C144.74588,198.114,145.42863,199.23519,144.93258,199.57835Z"/>
      <path class="cls-1" d="M137.23569,211.08992c-.49621.34327-1.3048-.69111-2.12972-1.06018-.55683-.24913-1.75693.30978-2.37651-.2063-.50469-.42037-.23122-1.733-.73533-2.30252-.45049-.509-1.784-.37418-2.20532-.98329-.42111-.60874.17544-1.80865-.14182-2.40934-.35525-.6726-1.68-.87955-1.89547-1.50011-.26475-.76252.68132-1.689.64466-2.2984-.05426-.90165-.737-2.02283-.24095-2.366.49621-.34327,1.30479.69111,2.12972,1.06018.55682.24913,1.75692-.30977,2.37651.2063.50469.42037.23121,1.733.73533,2.30252.45049.509,1.78394.37419,2.20531.98329.42112.60874-.17543,1.80865.14183,2.40934.35525.67261,1.68.87955,1.89546,1.50011.26475.76253-.68132,1.689-.64465,2.2984C137.049,209.62558,137.73174,210.74676,137.23569,211.08992Z"/>
      <path class="cls-1" d="M134.83069,231.92856c-.49622.34327-1.3048-.69111-2.12972-1.06019-.55683-.24912-1.75693.30978-2.37651-.20629-.5047-.42038-.23122-1.733-.73533-2.30252-.45049-.509-1.784-.37419-2.20532-.9833-.42111-.60873.17544-1.80865-.14182-2.40933-.35525-.67261-1.68-.87955-1.89547-1.50012-.26475-.76252.68132-1.689.64466-2.29839-.05426-.90165-.737-2.02284-.24095-2.366.49621-.34327,1.30479.69111,2.12972,1.06019.55682.24912,1.75692-.30978,2.37651.20629.50469.42038.23121,1.733.73533,2.30252.45049.509,1.78394.37419,2.20531.9833.42112.60873-.17543,1.80865.14183,2.40933.35525.67261,1.68.87955,1.89546,1.50012.26475.76252-.68132,1.689-.64465,2.29839C134.644,230.46421,135.32674,231.5854,134.83069,231.92856Z"/>
      <path class="cls-1" d="M151.33426,255.78506c-.49622.34327-1.3048-.69111-2.12972-1.06018-.55683-.24913-1.75693.30978-2.37651-.2063-.5047-.42037-.23122-1.733-.73533-2.30252-.45049-.509-1.784-.37418-2.20532-.98329-.42111-.60874.17544-1.80865-.14183-2.40934-.35524-.67261-1.68-.87955-1.89546-1.50011-.26475-.76252.68132-1.689.64466-2.2984-.05426-.90165-.737-2.02283-.24095-2.366.49621-.34327,1.30479.69111,2.12972,1.06018.55682.24913,1.75692-.30977,2.37651.2063.50469.42037.23121,1.733.73532,2.30252.45049.509,1.784.37418,2.20532.98329.42112.60874-.17544,1.80865.14183,2.40934.35525.67261,1.68.87955,1.89546,1.50011.26475.76253-.68132,1.689-.64465,2.2984C151.14756,254.32072,151.83031,255.4419,151.33426,255.78506Z"/>
      <path class="cls-1" d="M104.4627,254.91953c-.49621.34327-1.3048-.69112-2.12972-1.06019-.55683-.24912-1.75693.30978-2.37651-.20629-.50469-.42038-.23122-1.733-.73533-2.30253-.45049-.509-1.784-.37418-2.20532-.98329-.42111-.60874.17544-1.80865-.14182-2.40933-.35525-.67261-1.68-.87956-1.89547-1.50012-.26475-.76252.68132-1.689.64466-2.2984-.05426-.90164-.737-2.02283-.24095-2.366.49621-.34327,1.30479.69111,2.12972,1.06019.55682.24912,1.75692-.30978,2.37651.20629.50469.42038.23121,1.733.73533,2.30252.45049.509,1.78394.37419,2.20531.9833.42112.60873-.17543,1.80865.14183,2.40933.35525.67261,1.68.87955,1.89546,1.50012.26475.76252-.68132,1.689-.64465,2.29839C104.276,253.45518,104.95875,254.57637,104.4627,254.91953Z"/>
      <path class="cls-1" d="M119.8632,277.02506c-.49621.34327-1.30479-.69112-2.12971-1.06019-.55683-.24912-1.75693.30978-2.37651-.20629-.5047-.42038-.23122-1.733-.73533-2.30253-.45049-.509-1.784-.37418-2.20532-.98329-.42111-.60874.17544-1.80865-.14183-2.40933-.35524-.67261-1.68-.87956-1.89546-1.50012-.26475-.76252.68132-1.689.64466-2.29839-.05426-.90165-.737-2.02284-.241-2.366.49621-.34327,1.30479.69111,2.12972,1.06019.55682.24912,1.75692-.30978,2.37651.20629.50469.42038.23121,1.733.73532,2.30252.45049.509,1.784.37419,2.20532.9833.42111.60873-.17544,1.80865.14183,2.40933.35524.67261,1.68.87955,1.89546,1.50012.26475.76252-.68132,1.689-.64466,2.29839C119.67651,275.56071,120.35925,276.6819,119.8632,277.02506Z"/>
      <path class="cls-1" d="M120.815,297.86562c-.49621.34327-1.30479-.69111-2.12972-1.06018-.55682-.24913-1.75692.30978-2.37651-.2063-.50469-.42037-.23121-1.733-.73533-2.30252-.45049-.509-1.78394-.37418-2.20531-.98329-.42112-.60874.17543-1.80865-.14183-2.40934-.35525-.67261-1.68-.87955-1.89546-1.50011-.26475-.76252.68132-1.689.64465-2.2984-.05425-.90165-.737-2.02283-.24095-2.366.49621-.34327,1.3048.69111,2.12972,1.06018.55683.24913,1.75693-.30978,2.37651.2063.50469.42037.23122,1.733.73533,2.30252.45049.509,1.784.37418,2.20532.98329.42111.60874-.17544,1.80865.14182,2.40934.35525.67261,1.68.87955,1.89547,1.50011.26475.76252-.68132,1.689-.64466,2.2984C120.62833,296.40128,121.31107,297.52246,120.815,297.86562Z"/>
      <path class="cls-1" d="M107.95774,319.08285c-.49622.34327-1.3048-.69111-2.12972-1.06018-.55683-.24913-1.75693.30977-2.37651-.2063-.5047-.42038-.23122-1.733-.73533-2.30252-.45049-.509-1.78395-.37419-2.20532-.9833-.42111-.60873.17544-1.80864-.14182-2.40933-.35525-.67261-1.68-.87955-1.89547-1.50012-.26475-.76252.68132-1.689.64466-2.29839-.05426-.90165-.737-2.02283-.24095-2.366.49621-.34328,1.30479.69111,2.12972,1.06018.55682.24912,1.75692-.30978,2.37651.20629.50469.42038.23121,1.733.73533,2.30253.45049.509,1.78394.37418,2.20531.98329.42112.60874-.17543,1.80865.14183,2.40934.35525.6726,1.68.87955,1.89546,1.50011.26475.76252-.68132,1.689-.64465,2.2984C107.771,317.61851,108.45379,318.73969,107.95774,319.08285Z"/>
      <path class="cls-1" d="M86.17589,342.78178c-2.9499,1.79571-3.53947.82719-6.48937,2.6229-2.95246,1.79727-2.36289,2.7658-5.31535,4.56307-2.9545,1.79851-3.54407.83-6.49856,2.62849s-2.36492,2.767-5.31941,4.56554"/>
    </g>
  </g>
</svg>
