<svg id="Body" xmlns="http://www.w3.org/2000/svg" width="957.51131" height="433.46828" viewBox="0 0 957.51131 433.46828">
  <defs>
    <style>
      .cls-1 {
        fill: #191919;
      }

      .cls-2 {
        fill: #f8bb91;
      }
    </style>
  </defs>
  <g id="Layer_6" data-name="Layer 6">
    <path class="cls-1" d="M488.51441,1633.614s-15.96452-59.246,9.04657-90.64287,42.57206-57.47229,117.07317-56.408,118.66962,76.09756,118.13747,121.86253-13.83592,51.61863-13.83592,51.61863Z" transform="translate(-122.48869 -1486.53172)"/>
  </g>
  <path class="cls-2" d="M603.10425,1494.90014c97.55874.66385,123.459,108.204,124.16841,151.131,14.90023,10.28818,17.51623,13.51519,17.38366,26.96217-.32374,11.572-4.65489,19.04275-8.15965,25.18847-3.62563,6.35765-2.83813,9.26682-22.7051,18.09312-6.1957,6.59239-8.51094,12.63435-10.28824,15.255-8.21885,12.11839-10.18769,23.45864-10.28825,34.41242-.35488,38.66973-.70955,48.60322-.70955,62.439,0,13.83605.01447,43.28165,47.90088,42.57219,47.88626-.70975,204.87072-7.98236,216.93284-10.82048C969.40121,1857.29491,1080,1816.31937,1080,1816.31937v80.53217L1045.85362,1920H203.63639s-24.83375-28.47013-35.47673-55.07761-6.031-47.18411-4.25719-67.40587,6.031-154.32376,6.031-160.35459c0-6.03113.26419-17.38364-8.55969-24.4791-8.82387-7.09517-28.03662-27.06028-36.06633-38.20816-8.02964-11.14759-2.91274-76.02666,69.45978-73.89828,72.37245,2.12867,62.92827,73.41186,47.42863,88.6794s-27.20694,22.71758-24.014,36.90821,17.04057,105.059,26.25274,127.71629c12.14037,29.85912,30.51,77.33917,30.51,86.91788s54.63416,33.70294,140.133,31.92915,70.3245-2.44113,83.80568-2.44113,29.09906-12.193,30.87286-41.284c1.77379-29.09073,3.459-41.06441,3.81376-49.57879s3.19285-13.83576-6.031-26.96235c-9.224-13.1263-16.76571-37.86573-32.37541-42.12278-15.60984-4.25733-28.822-22.44468-28.20115-37.69964s7.36147-21.99556,14.81152-23.76935c7.45019-1.77409,6.031-7.80492,6.74058-15.25526C489.224,1626.164,498.80273,1494.19068,603.10425,1494.90014Z" transform="translate(-122.48869 -1486.53172)"/>
</svg>
