<?xml version="1.0" encoding="UTF-8" standalone="no"?>
<svg
   width="79.022217mm"
   height="150mm"
   viewBox="0 0 224 425.19685"
   version="1.1"
   id="svg19"
   sodipodi:docname="dewi.svg"
   xmlns:inkscape="http://www.inkscape.org/namespaces/inkscape"
   xmlns:sodipodi="http://sodipodi.sourceforge.net/DTD/sodipodi-0.dtd"
   xmlns="http://www.w3.org/2000/svg"
   xmlns:svg="http://www.w3.org/2000/svg">
  <sodipodi:namedview
     id="namedview19"
     pagecolor="#ffffff"
     bordercolor="#000000"
     borderopacity="0.25"
     inkscape:showpageshadow="2"
     inkscape:pageopacity="0.0"
     inkscape:pagecheckerboard="0"
     inkscape:deskcolor="#d1d1d1"
     inkscape:document-units="mm" />
  <defs
     id="defs1">
    <style
       id="style1">
      .cls-1 {
        fill: none;
        stroke: #144d79;
        stroke-miterlimit: 10;
        stroke-width: 2px;
      }
    </style>
  </defs>
  <g
     id="_2"
     data-name="2"
     style="stroke:#ffffff;stroke-opacity:1">
    <g
       id="g19"
       style="stroke:#ffffff;stroke-opacity:1">
      <path
         class="cls-1"
         d="m 79.83233,24.14612 c -2.34467,39.71074 -0.30594,39.74968 0.52086,79.521 0.82682,39.77247 1.96044,39.7489 2.78726,79.52137 0.82687,39.77432 -0.30674,39.79788 0.52012,79.5722 0.82686,39.77432 -6.05778,40.62064 2.77332,79.411 2.54254,11.168 8.77823,6.79244 18.41561,12.982 9.63786,6.18987 10.25059,5.23583 19.88844,11.42571 9.63918,6.19073 9.02645,7.14477 18.66563,13.3355 9.63918,6.19073 14.03094,21.94016 19.07573,11.65478 11.15589,-22.74477 0.82522,-25.08807 0.57453,-50.42017 -0.25067,-25.33132 -1.38448,-25.32009 -1.63516,-50.6514 -0.25071,-25.3348 0.88309,-25.346 0.63238,-50.68081 -0.25071,-25.33481 -0.61833,-25.3256 -1.6348,-50.64124 -0.2398,-5.97238 -0.68961,-4.89761 -4.89291,-10.70838 -2.02918,-2.80521 -5.48234,-5.15739 -8.758,-8.18531 -2.7101,-2.5051 -5.20067,-5.86317 -8.87269,-8.05993 -3.21152,-1.92127 -7.28573,-2.62239 -11.30361,-4.00866 -3.69,-1.27316 -6.1276,-4.64334 -8.66338,-7.76333 -2.3954,-2.94728 -5.28254,-5.88919 -6.82323,-9.51236 -1.60311,-3.76994 -1.718,-8.00967 -2.58384,-11.46814 -1.62561,-6.493 -2.98665,-5.4885 -3.23739,-11.33763 -0.41345,-9.64473 0.85984,-9.69 0.58658,-19.33977 -0.27328,-9.65019 -1.40668,-9.61809 -1.68,-19.26829 -0.27331,-9.65152 0.86009,-9.68361 0.58678,-19.33513 -0.27331,-9.65152 0.9666,-9.84126 -1.6589,-19.13284 -1.00558,-3.55873 -2.17934,-2.71776 -5.22566,-4.81435 -3.049,-2.09841 -3.6918,-1.16438 -6.74076,-3.2628 -3.05107,-2.09985 -2.82271,-2.36671 -5.369,-5.05647 -2.9367,-3.10214 -5.7296,-7.47394 -5.94791,-3.77655 z"
         id="path1"
         style="stroke:#ffffff;stroke-opacity:1" />
      <path
         class="cls-1"
         d="m 79.614,24.56059 c -2.27957,1.76907 -2.97473,0.87331 -5.25429,2.64238 -2.28155,1.77061 -1.58639,2.66637 -3.86794,4.437 -2.28311,1.77183 -2.97828,0.87607 -5.26139,2.6479 -2.28311,1.77183 -3.50477,1.1343 -3.65246,4.02051 -2.034,39.74626 -0.97728,39.77121 -0.82145,79.56918 0.15583,39.79914 1.28968,39.7947 1.44552,79.59383 0.15584,39.801 -0.978,39.80542 -0.82216,79.60641 0.15584,39.80099 -7.00061,40.582 1.43267,79.47962 2.5054,11.5559 9.01586,7.08818 18.89716,13.58248 9.88178,6.49461 10.50453,5.54708 20.38631,12.04169 9.88315,6.49551 9.2604,7.443 19.14354,13.93855 9.88314,6.49555 9.31814,7.57537 20.28935,11.99133 2.50831,1.0096 2.272,-0.68392 4.40806,-2.34164 2.13794,-1.65917 1.44278,-2.55493 3.58072,-4.21409 2.13941,-1.6603 2.83457,-0.76454 4.974,-2.42485 2.13943,-1.66031 1.44425,-2.55606 3.58366,-4.21636"
         id="path2"
         style="stroke:#ffffff;stroke-opacity:1" />
      <g
         id="g6"
         style="stroke:#ffffff;stroke-opacity:1">
        <path
           class="cls-1"
           d="m 77.11976,182.312 c 0.059,0.0262 -0.39019,1.06763 -0.33624,1.09774 0.05679,0.0317 0.71764,-0.88987 0.76834,-0.85346 0.05178,0.0372 -0.61991,0.9494 -0.575,0.9919 0.04593,0.0434 0.9255,-0.66987 0.96379,-0.62052 0.36041,0.46441 -0.59143,1.31344 -0.82036,2.07808 -0.164,0.5477 0.54581,1.62926 0.12628,2.24375 -0.34423,0.5042 -1.64189,0.303 -2.13422,0.80757 -0.44061,0.45153 -0.18286,1.739 -0.7257,2.16023 -0.54306,0.42146 -1.72581,-0.14768 -2.27113,0.16688 -0.61152,0.35275 -0.73765,1.65983 -1.31093,1.86843 -0.70028,0.2548 -1.57215,-0.701 -2.14341,-0.67837 -0.7981,0.0317 -1.85708,0.74164 -2.21822,0.27629 -0.03849,-0.0496 0.87086,-0.72449 0.84008,-0.78007 -0.02989,-0.054 -1.08046,0.36982 -1.10356,0.31056 -0.02254,-0.0578 1.03435,-0.46888 1.01783,-0.53137 -0.01584,-0.0599 -1.13625,0.11671 -1.147,0.0528"
           id="path3"
           style="stroke:#ffffff;stroke-opacity:1" />
        <path
           class="cls-1"
           d="m 70.17205,184.78868 c -0.409,0.31744 -1.45584,-0.34291 -1.86723,-0.10578 -0.46076,0.26558 -0.43876,1.503 -0.87116,1.66021 -0.52887,0.19232 -1.2401,-0.79869 -1.67155,-0.78179 -0.60031,0.0235 -1.50272,0.78422 -1.77437,0.43418 -0.27191,-0.35038 0.6891,-1.03606 0.86148,-1.61246 0.12337,-0.41256 -0.66089,-1.34616 -0.34462,-1.80923 0.25956,-0.38005 1.453,-0.0521 1.8247,-0.43279 0.33225,-0.34025 -0.04709,-1.5187 0.36265,-1.83669 0.409,-0.31744 1.45584,0.34291 1.86723,0.10578 0.46076,-0.26558 0.43876,-1.503 0.87116,-1.66021 0.52887,-0.19232 1.2401,0.7987 1.67156,0.78179 0.6003,-0.0235 1.50271,-0.78422 1.77436,-0.43418 0.27192,0.35039 -0.6891,1.03606 -0.86147,1.61246 -0.12338,0.41256 0.66088,1.34616 0.34462,1.80923 -0.25956,0.38 -1.453,0.0521 -1.82471,0.43279 -0.33225,0.34025 0.0471,1.5187 -0.36265,1.83669 z"
           id="path4"
           style="stroke:#ffffff;stroke-opacity:1" />
        <path
           class="cls-1"
           d="m 77.15316,183.73388 c -0.63176,-0.47838 0.05272,-1.38232 -0.579,-1.8607 -0.63273,-0.47911 -1.31721,0.42483 -1.94994,-0.0543 -0.63451,-0.48046 0.05,-1.3844 -0.58454,-1.86486 -0.63454,-0.48046 -1.319,0.42348 -1.9535,-0.057"
           id="path5"
           style="stroke:#ffffff;stroke-opacity:1" />
        <path
           class="cls-1"
           d="m 66.37176,191.7281 c -0.30658,-0.73073 0.739,-1.1694 0.43241,-1.90013 -0.3073,-0.73244 -1.35286,-0.29378 -1.66016,-1.02622 -0.30779,-0.73362 0.73777,-1.17229 0.43,-1.90591 -0.30777,-0.73362 -1.35336,-0.295 -1.66115,-1.02859"
           id="path6"
           style="stroke:#ffffff;stroke-opacity:1" />
      </g>
      <g
         id="g10"
         style="stroke:#ffffff;stroke-opacity:1">
        <path
           class="cls-1"
           d="m 78.35723,201.72975 c 0.06733,0.0298 -0.374,1.07523 -0.31246,1.10956 0.06475,0.0361 0.73316,-0.88067 0.791,-0.83914 0.05906,0.0424 -0.60584,0.96019 -0.55458,1.00865 0.05238,0.0495 0.93787,-0.65729 0.98154,-0.601 0.41095,0.52955 -0.5354,1.47171 -0.79644,2.34358 -0.187,0.62451 0.48053,1.79013 0.0022,2.49079 -0.39251,0.57492 -1.74958,0.44589 -2.311,1.02119 -0.50241,0.51486 -0.31416,1.8645 -0.93312,2.34485 -0.61923,0.48056 -1.87938,-0.0367 -2.50118,0.322 -0.69722,0.40218 -0.9079,1.749 -1.56153,1.98681 -0.79852,0.29056 -1.76237,-0.64513 -2.41377,-0.61929 -0.91006,0.0361 -2.05792,0.71749 -2.46972,0.18686 -0.04389,-0.0566 0.86062,-0.73884 0.82553,-0.80221 -0.03409,-0.0616 -1.08835,0.35429 -1.1147,0.28671 -0.0257,-0.0659 1.02847,-0.48543 1.00964,-0.55668 -0.01807,-0.0683 -1.14032,0.0996 -1.15253,0.0267"
           id="path7"
           style="stroke:#ffffff;stroke-opacity:1" />
        <path
           class="cls-1"
           d="m 70.4186,204.41825 c -0.46641,0.362 -1.57157,-0.2593 -2.04065,0.0111 -0.52539,0.30283 -0.56717,1.57015 -1.06022,1.74944 -0.603,0.21929 -1.38373,-0.75653 -1.87569,-0.73726 -0.68449,0.0268 -1.65376,0.766 -1.96351,0.36688 -0.31,-0.39952 0.64675,-1.15539 0.8433,-1.81264 0.14078,-0.47074 -0.61131,-1.46813 -0.2503,-1.99654 0.29594,-0.43314 1.534,-0.15928 1.9577,-0.59313 0.37873,-0.3878 0.05168,-1.613 0.51869,-1.97545 0.46641,-0.362 1.57156,0.2593 2.04065,-0.0111 0.52538,-0.30283 0.56716,-1.57015 1.06021,-1.74944 0.603,-0.21929 1.38373,0.75653 1.8757,0.73726 0.68449,-0.0268 1.65376,-0.766 1.9635,-0.36688 0.31006,0.39953 -0.64675,1.1554 -0.8433,1.81264 -0.14078,0.47075 0.61132,1.46813 0.2503,1.99654 -0.29593,0.43315 -1.534,0.15929 -1.9577,0.59313 -0.37873,0.38781 -0.05167,1.61303 -0.51868,1.97545 z"
           id="path8"
           style="stroke:#ffffff;stroke-opacity:1" />
        <path
           class="cls-1"
           d="m 78.4755,203.21495 c -0.72035,-0.54546 -0.03587,-1.44941 -0.75623,-1.99488 -0.722,-0.54674 -1.40653,0.35721 -2.12857,-0.18953 -0.72321,-0.54763 -0.03873,-1.45157 -0.76194,-1.9992 -0.72321,-0.54763 -1.40769,0.35633 -2.1309,-0.1913"
           id="path9"
           style="stroke:#ffffff;stroke-opacity:1" />
        <path
           class="cls-1"
           d="m 66.2074,212.363 c -0.34958,-0.83322 0.696,-1.27188 0.34641,-2.1051 -0.35039,-0.83516 -1.396,-0.3965 -1.74635,-1.23166 -0.351,-0.83651 0.69461,-1.27518 0.34365,-2.11169 -0.35096,-0.83651 -1.39652,-0.39784 -1.74748,-1.23435"
           id="path10"
           style="stroke:#ffffff;stroke-opacity:1" />
      </g>
      <path
         class="cls-1"
         d="m 144.93258,199.57835 c -0.49621,0.34327 -1.3048,-0.69112 -2.12972,-1.06019 -0.55683,-0.24912 -1.75693,0.30978 -2.37651,-0.20629 -0.50469,-0.42038 -0.23121,-1.733 -0.73533,-2.30253 -0.45049,-0.509 -1.78394,-0.37418 -2.20532,-0.98329 -0.42111,-0.60874 0.17544,-1.80865 -0.14182,-2.40933 -0.35525,-0.67261 -1.68,-0.87956 -1.89547,-1.50012 -0.26475,-0.76252 0.68132,-1.689 0.64466,-2.29839 -0.0543,-0.90165 -0.737,-2.02284 -0.24095,-2.366 0.49621,-0.34327 1.30479,0.69111 2.12972,1.06019 0.55682,0.24912 1.75692,-0.30978 2.37651,0.20629 0.50469,0.42038 0.23121,1.733 0.73533,2.30252 0.45049,0.509 1.78394,0.37419 2.20531,0.9833 0.42112,0.60873 -0.17543,1.80865 0.14183,2.40933 0.35525,0.67261 1.68,0.87955 1.89546,1.50012 0.26475,0.76252 -0.68132,1.689 -0.64465,2.29839 0.0542,0.90165 0.737,2.02284 0.24095,2.366 z"
         id="path11"
         style="stroke:#ffffff;stroke-opacity:1" />
      <path
         class="cls-1"
         d="m 137.23569,211.08992 c -0.49621,0.34327 -1.3048,-0.69111 -2.12972,-1.06018 -0.55683,-0.24913 -1.75693,0.30978 -2.37651,-0.2063 -0.50469,-0.42037 -0.23122,-1.733 -0.73533,-2.30252 -0.45049,-0.509 -1.784,-0.37418 -2.20532,-0.98329 -0.42111,-0.60874 0.17544,-1.80865 -0.14182,-2.40934 -0.35525,-0.6726 -1.68,-0.87955 -1.89547,-1.50011 -0.26475,-0.76252 0.68132,-1.689 0.64466,-2.2984 -0.0543,-0.90165 -0.737,-2.02283 -0.24095,-2.366 0.49621,-0.34327 1.30479,0.69111 2.12972,1.06018 0.55682,0.24913 1.75692,-0.30977 2.37651,0.2063 0.50469,0.42037 0.23121,1.733 0.73533,2.30252 0.45049,0.509 1.78394,0.37419 2.20531,0.98329 0.42112,0.60874 -0.17543,1.80865 0.14183,2.40934 0.35525,0.67261 1.68,0.87955 1.89546,1.50011 0.26475,0.76253 -0.68132,1.689 -0.64465,2.2984 0.0543,0.90166 0.737,2.02284 0.24095,2.366 z"
         id="path12"
         style="stroke:#ffffff;stroke-opacity:1" />
      <path
         class="cls-1"
         d="m 134.83069,231.92856 c -0.49622,0.34327 -1.3048,-0.69111 -2.12972,-1.06019 -0.55683,-0.24912 -1.75693,0.30978 -2.37651,-0.20629 -0.5047,-0.42038 -0.23122,-1.733 -0.73533,-2.30252 -0.45049,-0.509 -1.784,-0.37419 -2.20532,-0.9833 -0.42111,-0.60873 0.17544,-1.80865 -0.14182,-2.40933 -0.35525,-0.67261 -1.68,-0.87955 -1.89547,-1.50012 -0.26475,-0.76252 0.68132,-1.689 0.64466,-2.29839 -0.0543,-0.90165 -0.737,-2.02284 -0.24095,-2.366 0.49621,-0.34327 1.30479,0.69111 2.12972,1.06019 0.55682,0.24912 1.75692,-0.30978 2.37651,0.20629 0.50469,0.42038 0.23121,1.733 0.73533,2.30252 0.45049,0.509 1.78394,0.37419 2.20531,0.9833 0.42112,0.60873 -0.17543,1.80865 0.14183,2.40933 0.35525,0.67261 1.68,0.87955 1.89546,1.50012 0.26475,0.76252 -0.68132,1.689 -0.64465,2.29839 0.0543,0.90165 0.737,2.02284 0.24095,2.366 z"
         id="path13"
         style="stroke:#ffffff;stroke-opacity:1" />
      <path
         class="cls-1"
         d="m 151.33426,255.78506 c -0.49622,0.34327 -1.3048,-0.69111 -2.12972,-1.06018 -0.55683,-0.24913 -1.75693,0.30978 -2.37651,-0.2063 -0.5047,-0.42037 -0.23122,-1.733 -0.73533,-2.30252 -0.45049,-0.509 -1.784,-0.37418 -2.20532,-0.98329 -0.42111,-0.60874 0.17544,-1.80865 -0.14183,-2.40934 -0.35524,-0.67261 -1.68,-0.87955 -1.89546,-1.50011 -0.26475,-0.76252 0.68132,-1.689 0.64466,-2.2984 -0.0543,-0.90165 -0.737,-2.02283 -0.24095,-2.366 0.49621,-0.34327 1.30479,0.69111 2.12972,1.06018 0.55682,0.24913 1.75692,-0.30977 2.37651,0.2063 0.50469,0.42037 0.23121,1.733 0.73532,2.30252 0.45049,0.509 1.784,0.37418 2.20532,0.98329 0.42112,0.60874 -0.17544,1.80865 0.14183,2.40934 0.35525,0.67261 1.68,0.87955 1.89546,1.50011 0.26475,0.76253 -0.68132,1.689 -0.64465,2.2984 0.0542,0.90166 0.737,2.02284 0.24095,2.366 z"
         id="path14"
         style="stroke:#ffffff;stroke-opacity:1" />
      <path
         class="cls-1"
         d="m 104.4627,254.91953 c -0.49621,0.34327 -1.3048,-0.69112 -2.12972,-1.06019 -0.55683,-0.24912 -1.75693,0.30978 -2.37651,-0.20629 -0.50469,-0.42038 -0.23122,-1.733 -0.73533,-2.30253 -0.45049,-0.509 -1.784,-0.37418 -2.20532,-0.98329 -0.42111,-0.60874 0.17544,-1.80865 -0.14182,-2.40933 -0.35525,-0.67261 -1.68,-0.87956 -1.89547,-1.50012 -0.26475,-0.76252 0.68132,-1.689 0.64466,-2.2984 -0.05426,-0.90164 -0.737,-2.02283 -0.24095,-2.366 0.49621,-0.34327 1.30479,0.69111 2.12972,1.06019 0.55682,0.24912 1.75692,-0.30978 2.37651,0.20629 0.50469,0.42038 0.23121,1.733 0.73533,2.30252 0.45049,0.509 1.78394,0.37419 2.20531,0.9833 0.42112,0.60873 -0.17543,1.80865 0.14183,2.40933 0.35525,0.67261 1.68,0.87955 1.89546,1.50012 0.26475,0.76252 -0.68132,1.689 -0.64465,2.29839 0.0542,0.90166 0.737,2.02285 0.24095,2.36601 z"
         id="path15"
         style="stroke:#ffffff;stroke-opacity:1" />
      <path
         class="cls-1"
         d="m 119.8632,277.02506 c -0.49621,0.34327 -1.30479,-0.69112 -2.12971,-1.06019 -0.55683,-0.24912 -1.75693,0.30978 -2.37651,-0.20629 -0.5047,-0.42038 -0.23122,-1.733 -0.73533,-2.30253 -0.45049,-0.509 -1.784,-0.37418 -2.20532,-0.98329 -0.42111,-0.60874 0.17544,-1.80865 -0.14183,-2.40933 -0.35524,-0.67261 -1.68,-0.87956 -1.89546,-1.50012 -0.26475,-0.76252 0.68132,-1.689 0.64466,-2.29839 -0.0543,-0.90165 -0.737,-2.02284 -0.241,-2.366 0.49621,-0.34327 1.30479,0.69111 2.12972,1.06019 0.55682,0.24912 1.75692,-0.30978 2.37651,0.20629 0.50469,0.42038 0.23121,1.733 0.73532,2.30252 0.45049,0.509 1.784,0.37419 2.20532,0.9833 0.42111,0.60873 -0.17544,1.80865 0.14183,2.40933 0.35524,0.67261 1.68,0.87955 1.89546,1.50012 0.26475,0.76252 -0.68132,1.689 -0.64466,2.29839 0.0543,0.90165 0.73705,2.02284 0.241,2.366 z"
         id="path16"
         style="stroke:#ffffff;stroke-opacity:1" />
      <path
         class="cls-1"
         d="m 120.815,297.86562 c -0.49621,0.34327 -1.30479,-0.69111 -2.12972,-1.06018 -0.55682,-0.24913 -1.75692,0.30978 -2.37651,-0.2063 -0.50469,-0.42037 -0.23121,-1.733 -0.73533,-2.30252 -0.45049,-0.509 -1.78394,-0.37418 -2.20531,-0.98329 -0.42112,-0.60874 0.17543,-1.80865 -0.14183,-2.40934 -0.35525,-0.67261 -1.68,-0.87955 -1.89546,-1.50011 -0.26475,-0.76252 0.68132,-1.689 0.64465,-2.2984 -0.0542,-0.90165 -0.737,-2.02283 -0.24095,-2.366 0.49621,-0.34327 1.3048,0.69111 2.12972,1.06018 0.55683,0.24913 1.75693,-0.30978 2.37651,0.2063 0.50469,0.42037 0.23122,1.733 0.73533,2.30252 0.45049,0.509 1.784,0.37418 2.20532,0.98329 0.42111,0.60874 -0.17544,1.80865 0.14182,2.40934 0.35525,0.67261 1.68,0.87955 1.89547,1.50011 0.26475,0.76252 -0.68132,1.689 -0.64466,2.2984 0.0543,0.90166 0.73702,2.02284 0.24095,2.366 z"
         id="path17"
         style="stroke:#ffffff;stroke-opacity:1" />
      <path
         class="cls-1"
         d="m 107.95774,319.08285 c -0.49622,0.34327 -1.3048,-0.69111 -2.12972,-1.06018 -0.55683,-0.24913 -1.75693,0.30977 -2.37651,-0.2063 -0.5047,-0.42038 -0.23122,-1.733 -0.73533,-2.30252 -0.45049,-0.509 -1.78395,-0.37419 -2.20532,-0.9833 -0.42111,-0.60873 0.17544,-1.80864 -0.14182,-2.40933 -0.35525,-0.67261 -1.68,-0.87955 -1.89547,-1.50012 -0.26475,-0.76252 0.68132,-1.689 0.64466,-2.29839 -0.05426,-0.90165 -0.737,-2.02283 -0.24095,-2.366 0.49621,-0.34328 1.30479,0.69111 2.12972,1.06018 0.55682,0.24912 1.75692,-0.30978 2.37651,0.20629 0.50469,0.42038 0.23121,1.733 0.73533,2.30253 0.45049,0.509 1.78394,0.37418 2.20531,0.98329 0.42112,0.60874 -0.17543,1.80865 0.14183,2.40934 0.35525,0.6726 1.68,0.87955 1.89546,1.50011 0.26475,0.76252 -0.68132,1.689 -0.64465,2.2984 0.0542,0.90166 0.737,2.02284 0.24095,2.366 z"
         id="path18"
         style="stroke:#ffffff;stroke-opacity:1" />
      <path
         class="cls-1"
         d="m 86.17589,342.78178 c -2.9499,1.79571 -3.53947,0.82719 -6.48937,2.6229 -2.95246,1.79727 -2.36289,2.7658 -5.31535,4.56307 -2.9545,1.79851 -3.54407,0.83 -6.49856,2.62849 -2.95449,1.79849 -2.36492,2.767 -5.31941,4.56554"
         id="path19"
         style="stroke:#ffffff;stroke-opacity:1" />
    </g>
  </g>
</svg>
