<?xml version="1.0" encoding="UTF-8" standalone="no"?>
<svg
   width="130.22737mm"
   height="78.374748mm"
   viewBox="0 0 369.14844 222.16464"
   version="1.1"
   id="svg20"
   sodipodi:docname="points.svg"
   inkscape:export-filename="points.svg"
   inkscape:export-xdpi="96"
   inkscape:export-ydpi="96"
   inkscape:version="1.3.2 (091e20e, 2023-11-25, custom)"
   xmlns:inkscape="http://www.inkscape.org/namespaces/inkscape"
   xmlns:sodipodi="http://sodipodi.sourceforge.net/DTD/sodipodi-0.dtd"
   xmlns="http://www.w3.org/2000/svg"
   xmlns:svg="http://www.w3.org/2000/svg">
  <sodipodi:namedview
     id="namedview20"
     pagecolor="#ffffff"
     bordercolor="#000000"
     borderopacity="0.25"
     inkscape:showpageshadow="2"
     inkscape:pageopacity="0.0"
     inkscape:pagecheckerboard="0"
     inkscape:deskcolor="#d1d1d1"
     inkscape:document-units="mm"
     inkscape:zoom="1.0058351"
     inkscape:cx="254.01779"
     inkscape:cy="179.45288"
     inkscape:window-width="1920"
     inkscape:window-height="1017"
     inkscape:window-x="1072"
     inkscape:window-y="533"
     inkscape:window-maximized="1"
     inkscape:current-layer="svg20" />
  <defs
     id="defs1">
    <style
       id="style1">
      .cls-1 {
        fill: #070b13;
        stroke: #1d1d1b;
        stroke-miterlimit: 10;
      }

      .cls-2 {
        fill: #fff;
      }
    </style>
  </defs>
  <g
     id="Layer_2_copy"
     data-name="Layer 2 copy"
     transform="translate(-107.36998,-286.54244)">
    <path
       class="cls-2"
       d="m 459,507.70164 c -7.28171,0 -7.28171,-0.8938 -14.56341,-0.8938 -7.28243,0 -7.28243,1.39925 -14.56485,1.39925 -7.28175,0 -7.28175,-1.41465 -14.56349,-1.41465 -7.28174,0 -7.2816,0.77321 -14.56319,0.77321 -7.28159,0 -7.28166,0.60347 -14.56333,0.60348 -7.28182,0 -7.28182,-2.303 -14.56364,-2.303 -7.28213,0 -7.28213,0.77513 -14.56426,0.77513 -7.27923,0 -7.27923,-0.14387 -14.55845,-0.14387 -7.28129,0 -7.28129,-0.73149 -14.56257,-0.73149 -7.28241,0 -7.28241,0.2905 -14.56482,0.2905 -7.28131,0 -7.28131,0.37093 -14.56262,0.37093 -7.28131,0 -7.28146,-1.07573 -14.56291,-1.07573 -7.28229,0 -7.28229,2.37447 -14.56458,2.37447 -7.28343,0 -7.28343,-0.28537 -14.56686,-0.28537 -7.28219,0 -7.28219,0.6761 -14.56439,0.6761 -7.28293,0 -7.28293,-1.276 -14.56587,-1.276 -7.28313,0 -7.28313,-0.0741 -14.56626,-0.0741 -7.284,0 -7.284,-0.10491 -14.568,-0.1049 -7.282,0 -7.282,1.54229 -14.564,1.54229 -7.28454,0 -7.28454,-2.08341 -14.56908,-2.08341 -7.28223,0 -7.28223,1.63 -14.56446,1.63 -7.28724,0 -7.28724,-1.65913 -14.57447,-1.65912 -7.28723,10e-6 -7.28726,1.4451 -14.57449,1.4451 -4.34814,0 -7.25235,-3.57265 -10.10819,-6.42848 -2.85584,-2.85583 -5.924,-5.76 -5.924,-10.10819 0,-7.21874 0.16643,-7.21874 0.16643,-14.43749 0,-7.21875 -0.10142,-7.21888 -0.10142,-14.43776 0,-7.21971 0.42852,-7.21971 0.42852,-14.43942 0,-7.22085 -0.52847,-7.22085 -0.52847,-14.44169 0,-7.21961 1.36138,-7.21961 1.36138,-14.43923 0,-7.22035 -1.24822,-7.22035 -1.24822,-14.44071 0,-7.22054 1.01887,-7.22054 1.01887,-14.44109 0,-7.22141 -1.10333,-7.22141 -1.10333,-14.44282 0,-7.21943 0.52746,-7.21943 0.52746,-14.43886 0,-7.22195 -0.18835,-7.22195 -0.18835,-14.44389 0,-7.21965 0.6595,-7.21965 0.6595,-14.43931 0,-7.22461 -1.86077,-7.22461 -1.86077,-14.44922 0,-7.22461 -0.22943,-7.22462 -0.22943,-14.44923 0,-4.34815 3.72807,-7.69023 6.58391,-10.54606 A 14.251,14.251 0 0 1 124,288.20145 c 7.28171,0 7.28171,0.41246 14.56341,0.41246 7.28243,0 7.28243,-0.6949 14.56485,-0.6949 7.28175,0 7.28175,-1.516 14.56349,-1.516 7.28174,0 7.2816,2.2847 14.56319,2.2847 7.28159,0 7.28166,-2.6183 14.56333,-2.6183 7.28167,0 7.28182,0.68875 14.56364,0.68875 7.28213,0 7.28213,1.95752 14.56426,1.95752 7.27923,0 7.27923,-2.41693 14.55845,-2.41693 7.28129,0 7.28129,0.3403 14.56257,0.3403 7.28241,0 7.28241,-0.15305 14.56482,-0.15305 7.28131,0 7.28131,0.676 14.56262,0.676 7.28131,0 7.28146,-1.11956 14.56291,-1.11956 7.28229,0 7.28229,1.92331 14.56458,1.92331 7.28343,0 7.28343,-1.19512 14.56686,-1.19512 7.28219,0 7.28219,0.60127 14.56439,0.60127 7.28293,0 7.28293,1.44831 14.56587,1.44831 7.28313,0 7.28313,-2.059 14.56626,-2.059 7.284,0 7.284,1.95146 14.568,1.95146 7.282,0 7.282,-0.85812 14.564,-0.85812 7.28454,0 7.28454,-0.26437 14.56908,-0.26437 7.28223,0 7.28223,0.59669 14.56446,0.59669 7.28724,0 7.28724,-1.29022 14.57447,-1.29022 7.28723,0 7.28724,0.58991 14.57447,0.58991 4.34814,0 9.35023,0.71081 12.20607,3.56665 2.85584,2.85584 3.66578,7.85792 3.66578,12.20607 0,7.21874 -0.60036,7.21874 -0.60036,14.43749 0,7.21875 1.28453,7.21888 1.28453,14.43776 0,7.21971 -1.91551,7.21971 -1.91551,14.43942 0,7.22084 1.68333,7.22084 1.68333,14.44168 0,7.21962 0.64355,7.21962 0.64355,14.43924 0,7.22035 -2.01575,7.22035 -2.01575,14.4407 0,7.22055 -0.495,7.22055 -0.495,14.4411 0,7.22141 2.56181,7.22141 2.56181,14.44282 0,7.21943 -1.2174,7.21943 -1.2174,14.43886 0,7.22194 0.16983,7.22194 0.16983,14.44389 0,7.21965 0.11269,7.21965 0.11269,14.4393 0,7.22462 -1.47865,7.22462 -1.47865,14.44923 0,7.22461 1.95045,7.22462 1.95045,14.44923 0,4.34814 -3.34846,7.49525 -6.2043,10.35108 -2.85584,2.85583 -6.00291,6.35056 -10.35105,6.35056 z M 124,291.96092 c -6.74268,0 -12.19216,4.55568 -12.19216,11.29836 0,7.21874 1.39925,7.21874 1.39925,14.43749 0,7.21875 -1.41465,7.21888 -1.41465,14.43776 0,7.21971 0.77321,7.21971 0.77321,14.43942 0,7.22084 0.60348,7.22084 0.60348,14.44168 0,7.21962 -2.303,7.21962 -2.303,14.43924 0,7.22035 0.77514,7.22035 0.77513,14.4407 0,7.22055 -0.14387,7.22055 -0.14387,14.4411 0,7.22141 -0.73149,7.22141 -0.73149,14.44282 0,7.21943 0.2905,7.21943 0.2905,14.43886 0,7.22194 0.37093,7.22194 0.37093,14.44389 0,7.21965 -1.07573,7.21965 -1.07573,14.4393 0,7.22462 2.37447,7.22462 2.37447,14.44923 0,7.22461 -0.28537,7.22462 -0.28537,14.44923 0,6.74316 4.81666,10.88324 11.55934,10.88324 7.28171,0 7.28171,1.276 14.56341,1.276 7.28243,0 7.28243,0.0741 14.56485,0.0741 7.28175,0 7.28175,0.1049 14.56349,0.1049 7.28174,0 7.2816,-1.54229 14.56319,-1.54229 7.28159,0 7.28166,2.08341 14.56333,2.08341 7.28167,0 7.28182,-1.63 14.56364,-1.63 7.28213,0 7.28213,1.65912 14.56426,1.65912 7.27923,0 7.27923,-1.44518 14.55845,-1.44518 7.28129,0 7.28129,2.23408 14.56257,2.23408 7.28241,0 7.28241,-1.72955 14.56482,-1.72955 7.28131,0 7.28131,0.16643 14.56262,0.16643 7.28131,0 7.28146,-0.10142 14.56291,-0.10142 7.28229,0 7.28229,0.42852 14.56458,0.42852 7.28343,0 7.28343,-0.52847 14.56686,-0.52847 7.28219,0 7.28219,1.36138 14.56439,1.36138 7.28293,0 7.28293,-1.24822 14.56587,-1.24822 7.28313,0 7.28313,1.01887 14.56626,1.01887 7.284,0 7.284,-1.10333 14.568,-1.10333 7.282,0 7.282,0.52746 14.564,0.52746 7.28454,0 7.28454,-0.18835 14.56908,-0.18835 7.28223,0 7.28223,0.6595 14.56446,0.6595 7.28724,0 7.28724,-1.86077 14.57447,-1.86077 7.28723,0 7.28722,-0.22942 14.57445,-0.22942 6.74316,0 13.07816,-4.12687 13.07816,-10.87 0,-7.21874 -0.136,-7.21874 -0.136,-14.43749 0,-7.21875 0.41246,-7.21888 0.41246,-14.43776 0,-7.21971 -0.6949,-7.21971 -0.6949,-14.43942 0,-7.22085 -1.516,-7.22085 -1.516,-14.44169 0,-7.21961 2.2847,-7.21961 2.2847,-14.43923 0,-7.22035 -2.6183,-7.22035 -2.6183,-14.44071 0,-7.22054 0.68876,-7.22054 0.68876,-14.44109 0,-7.22141 1.95751,-7.22141 1.95751,-14.44282 0,-7.21943 -2.41693,-7.21943 -2.41693,-14.43886 0,-7.22195 0.3403,-7.22195 0.3403,-14.44389 0,-7.21965 -0.15305,-7.21965 -0.15305,-14.43931 0,-7.22461 0.676,-7.22461 0.676,-14.44922 0,-7.22461 -1.11956,-7.22462 -1.11956,-14.44923 0,-6.74268 -4.04,-12.7065 -10.78319,-12.7065 -7.28171,0 -7.28171,1.19512 -14.56341,1.19512 -7.28243,0 -7.28243,-0.60128 -14.56485,-0.60128 -7.28175,0 -7.28175,-1.4483 -14.56349,-1.4483 -7.28174,0 -7.2816,2.059 -14.56319,2.059 -7.28159,0 -7.28166,-1.95146 -14.56333,-1.95146 -7.28182,0 -7.28182,0.85813 -14.56364,0.85813 -7.28213,0 -7.28213,0.26437 -14.56426,0.26437 -7.27923,0 -7.27923,-0.59669 -14.55845,-0.59669 -7.28129,0 -7.28129,1.29021 -14.56257,1.29021 -7.28241,0 -7.28241,-0.5899 -14.56482,-0.5899 -7.28131,0 -7.28131,1.49672 -14.56262,1.49672 -7.28131,0 -7.28146,-1.39759 -14.56291,-1.39759 -7.28229,0 -7.28229,-0.60036 -14.56458,-0.60036 -7.28343,0 -7.28343,1.28453 -14.56686,1.28453 -7.28219,0 -7.28219,-1.91552 -14.56439,-1.91552 -7.28293,0 -7.28293,1.68333 -14.56587,1.68333 -7.28313,0 -7.28313,0.64355 -14.56626,0.64355 -7.284,0 -7.284,-2.01574 -14.568,-2.01574 -7.282,0 -7.282,-0.495 -14.564,-0.495 -7.28454,0 -7.28454,2.56181 -14.56908,2.56181 -7.28223,0 -7.28223,-1.21741 -14.56446,-1.21741 -7.28724,0 -7.28535,-0.14012 -14.566,0.16965 -7.3028,0.31075 -7.29569,0.73097 -14.58292,0.73097 z"
       transform="translate(0.5,0.5)"
       id="path1" />
    <path
       class="cls-2"
       d="m 311.69955,315.81205 c 2.99153,5.00931 -0.17639,5.61434 -0.17639,11.44894 0,5.8346 1.72742,5.9202 1.17956,11.729 -0.0517,0.54786 -1.06068,0.42659 -1.11472,-0.121 -0.54763,-5.54922 -2.07637,-5.515 -2.07637,-11.09114 0,-5.57614 4.21757,-6.30436 1.621,-11.23909 -1.36626,-2.59656 -3.179,0.79755 -6.06857,0.28854 -0.509,-0.0897 -0.3236,-0.85638 0.0819,-1.17689 2.86738,-2.26666 4.76707,-2.82989 6.55362,0.16164 z"
       transform="translate(0.5,0.5)"
       id="path2" />
    <g
       id="g6">
      <path
         class="cls-2"
         d="m 172.1912,379.33441 c 0.0735,-0.75693 3.80218,-0.76533 3.87907,-0.009 0.7566,7.4442 -0.586,7.60413 -0.586,15.08667 0,7.48254 -6.0893,9.84433 -0.29153,14.57448 7.10635,5.79777 8.83378,0.29463 17.97907,0.986 0.69139,0.0523 0.8276,2.04515 0.13592,2.09344 -9.90777,0.69168 -11.46477,3.971 -19.26462,-2.17751 -6.14855,-4.84685 0.0487,-6.98806 -0.58472,-14.79162 -0.64239,-7.91322 -2.02412,-7.97014 -1.26719,-15.76273 z"
         transform="translate(0.5,0.5)"
         id="path3" />
      <path
         class="cls-2"
         d="m 217.3973,400.31 c -10.176,0.20138 -10.87758,-4.72256 -20.63166,-1.81579 0.0894,6.03955 4.68553,12.37114 10.59129,12.37114 a 10.74609,10.74609 0 0 0 8.18191,-3.76331 c 0.61056,-0.3002 0.25483,-0.78928 0.0397,-0.14382 -2.10254,2.50537 -4.82171,2.609 -8.22162,2.609 -6.84521,0 -12.0695,-3.54522 -12.0695,-10.43535 0,-6.88965 4.95573,-12.08023 11.21941,-12.08023 6.17382,0 9.81306,5.12982 9.81306,11.93011 0.0189,0.69825 1.27877,1.32425 1.0774,1.32825 z m -20.06187,-3.07761 c 9.07971,2.663 9.83144,4.44719 18.90942,1.77835 -0.35742,-5.45849 -4.50364,-11.61183 -9.738,-11.61183 -5.27931,-5e-5 -8.85843,4.37493 -9.17142,9.83343 z"
         transform="translate(0.5,0.5)"
         id="path4" />
      <path
         class="cls-2"
         d="m 227.0736,383.60791 c 0,1.96851 -2.60339,3.6808 -0.85309,4.58159 3.401,1.75031 4.05821,-0.386 7.82932,0.25359 0.63955,0.10846 0.6227,-0.70679 -0.0168,-0.59833 -3.77111,0.63955 -5.46786,-2.262 -7.657,0.87453 -3.13657,4.49416 0.27815,5.60346 0.27815,11.08393 0,5.48047 1.38509,5.63128 0.65342,11.06269 -0.0986,0.73168 -2.2717,0.64856 -2.37027,-0.0831 -0.73167,-5.43141 1.023,-5.49911 1.023,-10.97958 0,-5.48047 0.21962,-5.5 -1.81574,-10.58852 -0.81412,-2.03535 -0.97312,-1.028 -3.07516,-1.65 -0.622,-0.18407 -1.0094,0.13276 -0.38738,-0.0513 2.102,-0.622 3.455,2.2345 5.05317,0.73405 1.50045,-1.40871 -1.1138,-2.76063 -1.1138,-4.81874 0,-3.624 2.60169,-5.97746 6.40443,-5.97746 a 5.9727,5.9727 0 0 1 4.2778,1.60215 c 0.109,0.66744 0.11463,-0.004 -0.55615,0.0818 -0.98437,-0.895 -2.20066,-0.82576 -3.6323,-0.82576 -3.04191,0 -4.04155,2.12175 -4.04155,5.29851 z"
         transform="translate(0.5,0.5)"
         id="path5" />
      <path
         class="cls-2"
         d="m 248.40191,409.0442 c -1.11865,1.07373 -1.49273,1.197 -3.19293,1.197 -3.84716,0 -6.76858,-1.6694 -6.76858,-5.29294 0,-8.053 2.85819,-8.303 0.743,-16.07321 -0.57578,-2.11517 -2.29375,1.03469 -4.39579,0.41267 -0.622,-0.18407 -0.38646,-1.20809 0.23556,-1.39215 2.102,-0.622 2.5318,1.03691 3.96074,-0.6255 1.66241,-1.934 -0.10906,-2.29485 0.60011,-4.74456 0.20529,-0.70917 0.64244,-0.68943 0.84773,0.0197 0.70917,2.44971 -1.50472,3.182 0.61721,4.59666 3.1827,2.12193 3.4609,0.64466 7.23225,1.28421 0.63955,0.10846 0.54456,-1.13361 -0.095,-1.02515 -3.77135,0.63955 -6.76083,-2.49374 -8.42085,0.95248 -3.44622,7.15442 0.93836,8.43 0.93836,16.37119 0,3.13135 1.64195,5.81662 4.63951,5.81662 1.43164,0 2.35544,-1.66272 3.33982,-2.55774 0.27545,-0.50034 -0.17297,0.41168 -0.28114,1.06069 z"
         transform="translate(0.5,0.5)"
         id="path6" />
    </g>
    <g
       id="g11">
      <path
         class="cls-2"
         d="m 157.03569,469.48923 c -4.39485,-4.97245 -2.83328,-6.24756 -7.06241,-11.3617 -1.02881,0.17871 -2.52894,1.55858 -3.73695,1.55858 -4.67529,0 -7.23042,-5.38252 -10.33746,-1.889 -3.49351,3.92806 1.97173,6.22228 1.21907,11.425 -0.10889,0.75266 -2.20023,0.77391 -2.27375,0.017 -0.75694,-7.79267 2.01843,-7.87991 2.01842,-15.70925 -1e-5,-7.82934 -6.40278,-9.53276 -1.93765,-15.964 3.10007,-4.46513 5.87558,0.2057 11.31137,0.2057 7.78467,0 12.10321,3.94729 12.10321,10.47952 a 9.59785,9.59785 0 0 1 -7.52532,9.88682 c 1.72011,6.64059 4.78853,5.177 8.02112,11.22735 0.54347,1.0171 -1.20692,0.79461 -1.79965,0.12398 z m -10.71,-12.65529 c 7.02393,0 11.30895,-2.81148 11.30895,-8.583 0,-5.72657 -4.285,-7.98186 -11.30895,-7.98186 -4.72,0 -8.4207,-5.80542 -10.61,-1.6239 -4.18153,7.98671 -0.9415,9.87536 1.39663,18.582 1.22628,4.56642 4.49339,-0.39324 9.21336,-0.39324 z"
         transform="translate(0.5,0.5)"
         id="path7" />
      <path
         class="cls-2"
         d="m 166.34642,438.45312 c 0,-0.80566 0.29323,-2.11988 1.0984,-2.11988 a 2.96836,2.96836 0 0 1 2.20425,2.075 c 0,0.80567 -1.39858,1.26744 -2.20425,1.26744 -0.80517,-4e-5 -1.0984,-0.46181 -1.0984,-1.22256 z m 0.75723,7.56328 c 0.0932,-0.73238 1.647,-0.8612 1.7401,-0.12881 0.73238,5.75854 0.0895,5.88609 0.0895,11.691 0,5.80491 -0.20275,5.82494 -0.93513,11.58348 -0.0932,0.73238 -1.62648,0.81607 -1.71963,0.0837 -0.73238,-5.75854 1.007,-5.87243 0.88778,-11.67614 -0.11895,-5.79035 -0.795,-5.79467 -0.0626,-11.55321 z"
         transform="translate(0.5,0.5)"
         id="path8" />
      <path
         class="cls-2"
         d="m 198.50114,445.9744 c 0.71416,10.46688 0.56367,10.48556 0.56367,20.97677 0,7.60547 -4.14928,10.173 -11.44176,10.173 -4.25,0 -9.0567,-0.16358 -11.29352,-2.53467 -0.25946,-0.65305 0.61719,-0.48128 1.27812,-0.24264 2.37109,2.28223 6.16774,1.577 9.97048,1.577 6.4873,0 9.62471,-2.21682 9.62471,-8.793 0,-2.46094 2.02036,-3.66232 -0.051,-4.99107 a 11.09984,11.09984 0 0 1 -10.15523,6.50515 11.24687,11.24687 0 0 1 -11.47935,-11.58049 c 0,-6.62109 4.90269,-12.22162 11.47935,-12.22162 4.60791,0 8.07357,3.04968 9.8182,6.89734 1.88049,-2.36311 -0.30832,-2.8203 0.263,-5.78579 a 0.73191,0.73191 0 0 1 1.42333,0.02 z m -1.26576,11.09005 c 0,-5.86133 -4.378,-9.40686 -10.19388,-9.40686 -5.81588,0 -10.9442,3.54553 -10.9442,9.40686 0,5.86035 5.12829,9.04127 10.9442,9.04127 5.81591,0 10.19388,-3.18092 10.19388,-9.04127 z"
         transform="translate(0.5,0.5)"
         id="path9" />
      <path
         class="cls-2"
         d="m 229.18427,455.543 c 0,6.82275 1.266,6.95824 0.532,13.7414 -0.0794,0.734 -1.57855,0.56133 -1.65849,-0.17261 -0.73394,-6.738 -1.7926,-6.70112 -1.7926,-13.47895 0,-5.54785 -1.8643,-7.25437 -6.91948,-7.25437 -5.8164,0 -8.64207,2.55711 -8.64207,8.28367 0,6.26318 -1.18739,6.16337 -1.9206,12.38349 -0.0864,0.73321 0.69556,0.79867 0.63014,0.0633 -0.73537,-8.26643 0.42976,-8.21949 0.42976,-16.51856 0,-8.29907 -3.15641,-8.42927 -2.421,-16.6957 0.0654,-0.73538 3.46746,-0.72911 3.53736,0.006 0.735,7.72733 -1.07433,7.80609 -0.10109,15.507 1.521,-3.48926 3.969,-6.45586 8.62133,-6.45586 5.68209,10e-6 9.70474,4.19385 9.70474,10.59134 z"
         transform="translate(0.5,0.5)"
         id="path10" />
      <path
         class="cls-2"
         d="m 249.39058,467.70068 a 6.59908,6.59908 0 0 1 -4.58589,1.36634 c -3.84717,0 -5.32349,-2.07093 -5.32349,-5.695 0,-8.05273 2.57218,-8.61827 0.457,-16.38825 -0.57579,-2.11517 -2.93021,-0.41544 -5.03219,-1.03768 -0.62223,-0.18419 -1.2629,-0.637 -0.64067,-0.82119 2.102,-0.62224 3.70182,2.93324 5.13092,1.271 1.66227,-1.93348 -0.13049,-2.76615 0.57867,-5.21536 0.20533,-0.70915 0.6447,-1.15057 0.85,-0.44141 0.70916,2.4492 -1.80709,2.66988 0.31456,4.08413 3.18288,2.12165 3.20917,-0.0463 6.98048,0.59349 0.63978,0.10854 0.65455,2.38035 0.0148,2.48889 -3.77131,0.63979 -6.01311,-4.044 -7.67317,-0.5978 -3.44621,7.15415 -0.58,7.89967 -0.58,15.84059 0,3.13183 2.05983,4.06014 5.05738,4.06014 a 5.00417,5.00417 0 0 0 3.56781,-1.27668 c 0.65289,-0.17596 0.99195,1.11998 0.88382,1.76879 z"
         transform="translate(0.5,0.5)"
         id="path11" />
    </g>
    <path
       class="cls-2"
       d="m 444.1152,331.67942 c -2.48625,0.49054 -2.55935,-0.845 -4.08317,1.17987 -2.02485,2.69064 -0.461,2.72688 -1.00364,6.05031 a 0.54162,0.54162 0 0 1 -1.04875,0.0309 c -0.54262,-3.32343 2.83906,-4.75847 -0.16988,-6.27039 -5.9882,-3.00894 -6.51012,0.52016 -13.19987,0.12072 -0.39943,-0.0238 -0.8897,-1.60912 -0.64416,-1.92507 6.25959,-8.05462 5.87072,-8.491 12.68955,-16.078 0.43442,-0.48337 3.65195,1.06631 3.26778,1.59051 -5.95294,8.12263 -14.59794,4.692 -15.11346,14.74926 -0.30549,5.96 8.501,3.94144 13.84467,1.28447 2.657,-1.32109 -1.93639,-4.381 -1.39578,-7.29866 0.10016,-0.5406 3.19847,-0.65517 3.29864,-0.11457 0.5406,2.91762 -3.6778,4.23133 -1.75076,6.48772 1.64578,1.92705 2.77739,1.00719 5.30518,1.187 0.33697,0.024 0.4942,-1.09086 0.004,-0.99407 z"
       transform="translate(0.5,0.5)"
       id="path12" />
    <path
       class="cls-2"
       d="m 357.72731,337.85958 c 0.51547,0.0378 0.48156,0.5555 -0.0342,0.58924 -7.885,0.51574 -7.94818,2.21786 -15.83992,1.81823 -0.39963,-0.0202 0.27188,-1.40549 0.54284,-1.69993 4.8051,-5.22171 4.96843,-5.03135 9.97313,-10.06207 2.86719,-2.86719 2.3321,-5.0114 2.3321,-6.91179 0,-3.10058 -1.47764,-4.42419 -5.546,-4.42419 -3.10058,0 -5.31568,0.329 -6.94947,2.22934 -0.47707,0.23194 -1.58885,-0.54924 -1.412,-1.04935 1.73339,-2.00049 4.96107,-3.17323 8.39564,-3.17323 4.4668,0 7.3431,2.583 7.3431,6.35054 0,2.20068 -0.44365,4.4315 -3.511,7.49888 -4.555,4.58 -6.63627,2.88589 -8.11638,9.1735 -1.61847,6.8753 5.78926,-0.85463 12.82215,-0.33917 z"
       transform="translate(0.5,0.5)"
       id="path13" />
    <path
       class="cls-2"
       d="m 398.902,332.46191 c 0,3.86768 -3.49085,7.20976 -8.62464,7.20976 -3.501,0 -7.17906,-1.74916 -8.68,-3.64955 -0.15824,-0.47461 0.783,-1.33194 1.238,-1.12388 1.36719,1.7002 4.07386,2.9636 7.40784,2.9636 4.46778,0 7.348,-2.03225 7.348,-5.39993 0,-3.40039 -2.81281,-6.30655 -7.74738,-6.30655 -0.65039,0 -1.16943,1.76679 -1.72347,1.42613 a 3.15354,3.15354 0 0 1 -0.61577,-2.22232 c 3.44828,-4.87151 12.36426,-4.19915 9.32576,-9.33625 -3.2758,-5.53831 -7.50279,1.47648 -13.9167,0.96129 -0.51519,-0.0414 -0.39233,-0.0466 0.12318,-0.0837 7.1494,-0.5155 7.04394,-0.97726 14.20077,-0.57774 0.39952,0.0223 -0.7757,-0.99981 -1.00709,-0.67334 -3.46468,4.88841 -5.844,4.22144 -6.97953,10.10458 5.46771,2e-5 9.65103,2.80754 9.65103,6.70793 z"
       transform="translate(0.5,0.5)"
       id="path14" />
    <path
       class="cls-2"
       d="m 405.57324,420.73172 c -7.26336,0 -7.26336,0.1922 -14.52672,0.1922 -7.26356,0 -7.26356,1.83033 -14.52711,1.83033 -7.26443,0 -7.26443,-1.88718 -14.52886,-1.88718 -7.26243,0 -7.26243,1.59007 -14.52487,1.59007 -7.265,0 -7.265,-0.76459 -14.52992,-0.76459 -7.26266,0 -7.26266,1.13955 -14.52532,1.13955 -7.26765,0 -7.26765,-1.46545 -14.5353,-1.46545 -7.26765,0 -7.26765,0.31288 -14.5353,0.31288 -3.00781,0 -4.06862,-2.64144 -4.06862,-5.64926 0,-8.8612 -0.99146,-8.8612 -0.99146,-17.72241 0,-8.86121 0.797,-8.8612 0.797,-17.72241 0,-3.00781 1.25531,-6.29464 4.26312,-6.29464 7.26337,0 7.26337,1.41988 14.52673,1.41988 7.26355,0 7.26355,-1.80153 14.52711,-1.80153 7.26443,0 7.26443,0.87894 14.52885,0.87894 7.26244,0 7.26244,1.79943 14.52488,1.79943 7.265,0 7.265,-2.58419 14.52992,-2.58419 7.26266,0 7.26266,0.527 14.52532,0.527 7.26764,0 7.26764,0.97752 14.53529,0.97752 7.26765,0 7.26765,-0.52452 14.5353,-0.52452 a 5.44107,5.44107 0 0 1 5.278,5.60212 c 0,8.86121 1.67471,8.86121 1.67471,17.72241 0,8.8612 -2.368,8.86121 -2.368,17.72241 -1.3e-4,3.00781 -1.57694,4.70144 -4.58475,4.70144 z m -116.2334,-43.14795 c -1.23974,0 -2.80947,1.76193 -2.80947,3.00168 0,8.86121 1.83032,8.86121 1.83032,17.72241 0,8.8612 -1.88718,8.86121 -1.88718,17.72241 0,1.23975 1.62659,1.27626 2.86633,1.27626 7.26337,0 7.26337,0.76459 14.52673,0.76459 7.26355,0 7.26355,-1.13955 14.52711,-1.13955 7.26443,0 7.26443,1.46546 14.52885,1.46546 7.26244,0 7.26244,-0.31288 14.52488,-0.31288 7.265,0 7.265,1.58062 14.52992,1.58062 7.26266,0 7.26266,-0.99145 14.52532,-0.99145 7.26764,0 7.26764,0.797 14.53529,0.797 7.26765,0 7.26765,-2.03152 14.5353,-2.03152 1.23926,0 2.82837,-0.16874 2.82837,-1.40849 0,-8.8612 -1.80153,-8.8612 -1.80153,-17.72241 0,-8.86121 0.87894,-8.8612 0.87894,-17.72241 0,-1.23975 -0.66652,-3.7052 -1.90578,-3.7052 -7.26336,0 -7.26336,2.58419 -14.52672,2.58419 -7.26356,0 -7.26356,-0.527 -14.52711,-0.527 -7.26443,0 -7.26443,-0.97752 -14.52885,-0.97752 -7.26244,0 -7.26244,0.52452 -14.52488,0.52452 -7.265,0 -7.265,-0.32416 -14.52992,-0.32416 -7.26266,0 -7.26266,1.67472 -14.52532,1.67472 -7.26765,0 -7.24192,-2.11648 -14.50523,-2.36754 -7.27792,-0.2516 -7.29772,0.11627 -14.56537,0.11627 z"
       transform="translate(0.5,0.5)"
       id="path15" />
    <path
       class="cls-2"
       d="m 445.04883,469.15052 c -6.90716,0 -6.90716,1.02676 -13.81433,1.02676 -6.90956,0 -6.90956,1.007 -13.81912,1.007 -6.90738,0 -6.90738,0.23173 -13.81475,0.23173 -6.91212,0 -6.91212,-0.0601 -13.82424,-0.0601 -6.91212,0 -6.91212,-0.526 -13.82424,-0.526 a 5.68923,5.68923 0 0 1 -5.38,-5.49211 c 0,-8.86133 -0.31471,-8.86133 -0.31471,-17.72266 0,-8.86133 1.65692,-8.86132 1.65692,-17.72265 0,-2.81934 1.21841,-3.88874 4.03775,-3.88874 6.90716,0 6.90716,-1.07234 13.81432,-1.07234 6.90957,0 6.90957,1.03254 13.81913,1.03254 6.90737,0 6.90737,-1.13588 13.81475,-1.13588 6.91212,0 6.91212,-1.54487 13.82424,-1.54487 6.91212,0 6.91212,2.16357 13.82424,2.16357 2.81933,0 4.44471,1.62638 4.44471,4.44572 0,8.86133 0.41274,8.86133 0.41274,17.72265 0,8.86132 0.62191,8.86133 0.62191,17.72266 4e-5,2.81939 -2.65999,3.81268 -5.47932,3.81268 z m -69.09668,-43.14844 c -1.42774,0 -2.86374,2.46276 -2.86374,3.8905 0,8.86133 1.007,8.86133 1.007,17.72265 0,8.86132 0.23172,8.86133 0.23172,17.72266 0,1.42774 0.19723,1.685 1.625,1.685 6.90716,0 6.90716,0.526 13.81432,0.526 6.90957,0 6.90957,0.11215 13.81913,0.11215 6.90737,0 6.90737,-0.31472 13.81475,-0.31472 6.91212,0 6.91212,1.65693 13.82424,1.65693 6.91212,0 6.91212,0.149 13.82424,0.149 1.42773,0 2.74205,-2.38666 2.74205,-3.81439 0,-8.86133 1.03254,-8.86133 1.03254,-17.72266 0,-8.86133 -1.13589,-8.86132 -1.13589,-17.72265 0,-1.42774 -1.211,-1.09384 -2.6387,-1.09384 -6.90716,0 -6.90716,-2.16357 -13.81433,-2.16357 -6.90956,0 -6.90956,-10e-4 -13.81912,-10e-4 -6.90738,0 -6.90738,0.41274 -13.81475,0.41274 -6.91212,0 -6.94857,1.05421 -13.84711,0.62119 -6.93779,-0.43546 -6.88923,-1.66599 -13.80135,-1.66599 z"
       transform="translate(0.5,0.5)"
       id="path16" />
    <path
       class="cls-2"
       d="m 314.79618,404.24611 c -6.39733,-2.5563 -7.32172,-2.85136 -13.719,-0.29506 -3.44307,1.37582 -1.40635,3.4716 -3.40292,6.59591 -0.32761,0.51266 -2.11392,0.42188 -1.9093,-0.15108 2.13273,-5.97165 4.76263,-4.89224 7.42621,-10.64676 2.66358,-5.75452 0.31256,-6.94364 3.39874,-12.483 0.264,-0.47389 0.93365,0.42523 1.19767,0.89912 3.08619,5.53937 4.02174,5.05511 6.68532,10.80963 2.66358,5.75452 1.95031,6.046 4.083,12.0176 0.20463,0.57295 -1.82835,0.62272 -1.93921,0.0245 -0.70291,-3.7929 1.62256,-5.39506 -1.82051,-6.77087 z m -0.55593,-1.27532 c 3.236,-7.01439 1.4963,-14.02 -6.22853,-14.02 -7.73157,0 -8.22988,6.57875 -6.87646,14.19094 1.24398,6.99664 10.39828,5.69627 13.10499,-0.17094 z"
       transform="translate(0.5,0.5)"
       id="path17" />
    <path
       class="cls-2"
       d="m 403.97562,404.13965 c 0,3.87988 -4.0889,6.36523 -9.712,6.36523 -4.998,0 -6.03518,2.86488 -9.3126,-0.90858 -3.77346,-4.34459 0.63694,-5.16088 0.63694,-10.91539 0,-5.75451 -4.07985,-6.33746 -0.454,-10.80594 2.94219,-3.6259 3.803,0.67822 8.4724,0.67822 4.80078,0 6.46162,0.62454 6.46162,4.4722 0,2.86035 0.79141,3.72523 -1.773,4.44837 a 6.54838,6.54838 0 0 1 5.68064,6.66589 z m -17.5727,-15.13 c -3.16493,3.78306 -3.94056,5.02863 -0.77562,8.81168 2.64781,3.16493 3.88491,1.10739 8.01137,1.10739 4.209,0 7.99621,-2.58255 7.99621,-5.83792 0,-3.25537 -3.50337,-6.01127 -7.71235,-6.01127 -3.8026,-1.00022 -4.8718,-1.23479 -7.51961,1.93014 z m 13.80208,15.0968 c 0,-3.55127 -1.17281,-4.81446 -5.875,-4.81446 -4.47217,0 -6.68156,-4.27723 -9.62578,-0.91094 -3.36628,3.84887 -3.67876,7.843 -0.31247,11.69186 2.94421,3.36628 5.46608,0.24655 9.93825,0.24655 4.70223,0 5.875,-2.69446 5.875,-6.21301 z"
       transform="translate(0.5,0.5)"
       id="path18" />
    <g
       id="g20">
      <path
         class="cls-2"
         d="m 382.49179,446.41992 c 0,-6.67578 4.53653,-10.17246 11.31094,-10.17246 3.124,0 6.17707,-0.54041 8.18293,1.49767 0.215,0.45149 0.0127,0.0596 -0.442,-0.14846 -2.03906,-1.97266 -4.97916,-2.38908 -7.70767,-2.38908 -6.14942,0 -12.15847,5.19475 -12.15847,11.21233 0,6.01758 6.009,9.20869 12.15847,9.20869 2.72851,0 5.00545,0.1048 7.04451,-1.86785 0.45473,-0.20809 0.80625,0.60625 0.59329,1.05872 -2.00586,2.07129 -4.547,4.026 -7.671,4.026 -6.77447,-3e-5 -11.311,-5.75075 -11.311,-12.42556 z"
         transform="translate(0.5,0.5)"
         id="path19" />
      <path
         class="cls-2"
         d="m 416.66134,435.39794 c 2.71128,-3.51474 3.8079,-0.10226 8.24686,-0.10226 7.30078,0 13.664,4.44846 13.664,11.12424 0,6.67481 -6.36318,10.32738 -13.664,10.32738 -4.439,0 -5.958,4.5352 -8.66929,1.02047 -3.51474,-4.55628 1.03342,-5.71913 0.12189,-11.40087 -0.91519,-5.70453 -3.2142,-6.41268 0.30054,-10.96896 z m 8.18143,22.30825 a 11.231,11.231 0 0 0 11.532,-11.28627 c 0,-6.083 -4.72537,-9.0255 -11.532,-9.0255 -3.84716,0 -7.47875,-5.48246 -8.8035,-1.87057 -3.61189,9.84778 -0.97523,11.10188 0.84969,21.43117 0.67467,3.81875 4.10665,0.75117 7.95381,0.75117 z"
         transform="translate(0.5,0.5)"
         id="path20" />
    </g>
  </g>
</svg>
