<svg id="svg1" xmlns="http://www.w3.org/2000/svg" width="64.97881mm" height="46.74083mm" viewBox="0 0 184.1919 132.4937">
  <defs>
    <style>
      .cls-1 {
        fill: none;
        stroke: #fff;
        stroke-linecap: round;
        stroke-linejoin: round;
        stroke-width: 1.48431px;
      }
    </style>
  </defs>
  <g id="g109">
    <g>
      <g id="path48">
        <path class="cls-1" d="M1.62642,76.69577c-.046,3.755,1.44594,3.48393,3.12538,6.84279s.8992,3.96319,3.85083,6.28491c3.19789,2.51542,3.76816,1.0611,7.69807,2.11447,3.9307,1.05359,3.90755,1.14,7.83824,2.19354,3.93044,1.05352,3.7967,1.55247,7.72713,2.606,3.93155,1.05382,4.1164.36418,8.048,1.418,3.93057,1.05356,3.74043,1.76292,7.671,2.81648,3.93169,1.05385,4.04759.62145,7.97927,1.67531,3.9323,1.054,3.88237,1.24027,7.81467,2.29429,3.9317,1.05386,3.97891.87776,7.91061,1.93162s3.95434.96971,7.88611,2.02359c3.93224,1.054,3.91346,1.124,7.84569,2.178,3.93285,1.05416,3.90494,1.15827,7.83779,2.21243,3.93218,1.054,3.93614,1.03922,7.86832,2.09321,3.93167,1.05385,3.881,1.243,7.81265,2.29682s3.97592.88874,7.90758,1.94259,3.9007,1.16966,7.83243,2.22352c3.93275,1.05414,4.00431.78715,7.93706,1.84129,3.93412,1.0545,3.79372,1.57828,7.72784,2.63278,3.93287,1.05417,3.97116.91133,7.904,1.9655,3.93558,1.0549,3.9942.83618,7.92977,1.89107s3.92291,3.16882,7.77888,1.85239c3.31789-1.13272,2.00517-2.67551,3.80043-5.68691s2.53547-2.71294,3.59047-6.05636c1.26568-4.01113.50794-4.19961.98166-8.37893.4738-4.18.24933-4.20542.72313-8.38539.47372-4.17927.3173-4.197.791-8.37626.47365-4.17873,1.09877-4.10787,1.57243-8.2866s.30455-4.19789.77821-8.3766.17257-4.21293.64623-8.39172c.47379-4.17987.47357-4.1799.94736-8.35977.474-4.18132.37869-4.19212.85264-8.37344.4738-4.18.81572-4.14125,1.28952-8.32125.47413-4.18287.42039-4.189.89452-8.37183s3.39576-5.04124.93156-8.45429c-2.35117-3.25649-4.11768-.2683-8.08126-.9185s-3.86021-1.28087-7.82387-1.93109c-3.96411-.6503-4.03493-.21859-7.99905-.86888-3.96473-.6504-3.97613-.58092-7.94086-1.23132-3.96407-.65028-3.9361-.82077-7.90016-1.47106-3.96355-.6502-3.90738-.99261-7.87093-1.64281s-4.05708-.08-8.02063-.73024-3.9355-.82158-7.89911-1.47179c-3.96464-.65038-3.99138-.48736-7.956-1.13774-3.966-.65061-3.90912-.99742-7.87514-1.648-3.96475-.6504-4.04773-.14456-8.01249-.795-3.96749-.65085-3.95383-.73409-7.92131-1.38494s-4.2397.11171-7.75737-1.83521c-1.55017-.858.74927-2.425-.7981-3.288C75.796,5.78632,75.26673,7.32775,71.09755,6.546c-4.16787-.78148-4.09045-1.19442-8.25831-1.97589-4.17073-.782-4.28634-.16547-8.45707-.94748S50.25783.70633,46.13,1.6899c-2.07139.49357.35749,3.10981-1.54709,4.0621-2.19759,1.09879-2.84344-2.18748-4.69854-.57648-4.06814,3.53286-4.57793,7.85528-5.27287,9.24516s2.98286,1.0871,2.91947,2.98876c-.10532,3.1596-3.35854,2.37228-3.17646,5.52839.21514,3.729,3.26,2.7451,3.85785,6.43211.24943,1.53814-1.19111,2.59824-2.74935,2.59824-5.54259,0-5.54293-1.05818-10.90172-2.4737-2.93516-.77531-1.68764-.945-4.46739-4.18809a4.71165,4.71165,0,0,0-6.03722-.57332c-2.0588,1.27354-3.53963,3.94646-2.26447,6.03308,2.54811,4.16963,6.44995,2.48888,6.21693,7.03288-.17806,3.47206-2.75968,2.68147-3.4759,6.08352-.33148,1.57455,1.3732,1.08764,1.07992,2.66976-.75779,4.088-1.53972,3.82469-3.30584,7.58854-1.76555,3.76266-1.91977,3.69029-3.68533,7.453-1.76677,3.76525-1.08912,4.14246-3.34365,7.63755C2.96867,72.81191,1.6774,72.53693,1.62642,76.69577Z" transform="translate(-0.88322 -0.69359)"/>
      </g>
      <g id="path49">
        <path class="cls-1" d="M2.24774,76.81606c3.85088.98376,3.93724.64569,7.78812,1.62945,3.85275.98425,3.959.56823,7.81179,1.55247,3.85171.984,3.82624,1.08367,7.67795,2.06765,3.85247.98417,3.7681,1.31444,7.62057,2.29861,3.85222.98411,3.96685.5354,7.81906,1.5195,3.85332.98439,3.83358,1.06166,7.6869,2.046,3.85236.98414,3.65429,1.75947,7.50665,2.74361,3.85344.98442,4.02222.32376,7.87566,1.30818,3.854.98457,3.72935,1.47267,7.5834,2.45724,3.85346.98443,3.91887.72836,7.77234,1.71278s3.94938.60924,7.80292,1.59368c3.854.98456,3.84185,1.032,7.69583,2.01659,3.85458.98471,3.80355,1.18448,7.65813,2.16919,3.852.984,3.90893.76118,7.76093,1.74523,3.85368.98448,3.66588,1.71958,7.51955,2.70406s3.99118.44621,7.84484,1.43068,3.83817,1.04542,7.6919,2.02991c3.85473.98474,3.77816,1.2845,7.63288,2.26925,3.85607.98509,3.96982.53985,7.82588,1.52493,3.85485.98478,3.741,1.43059,7.59581,2.41536,3.85749.98545,3.80592,1.18735,7.66341,2.1728s3.86453.95792,7.722,1.94337" transform="translate(-0.88322 -0.69359)"/>
      </g>
      <g id="g53">
        <g id="path50">
          <path class="cls-1" d="M28.34422,74.25605c-1.98612-4.72885-.61634-7.10432,3.92063-9.49654C36.12151,62.726,39.041,63.66782,40.7293,67.6876c1.87408,4.46211.09179,5.66478-3.26645,9.14973C33.94986,80.48286,30.19345,78.659,28.34422,74.25605Z" transform="translate(-0.88322 -0.69359)"/>
        </g>
        <g id="path51">
          <path class="cls-1" d="M27.69166,74.729c.28956,1.5636.2086,1.57859.49816,3.1422" transform="translate(-0.88322 -0.69359)"/>
        </g>
        <g id="path52">
          <path class="cls-1" d="M36.79722,77.096c.17374,1.332.44668,1.29636.62042,2.62833" transform="translate(-0.88322 -0.69359)"/>
        </g>
        <g id="path53">
          <path class="cls-1" d="M40.91546,67.77551c.46329,1.969.24614,2.02008.70943,3.98907" transform="translate(-0.88322 -0.69359)"/>
        </g>
      </g>
      <g id="path54">
        <path class="cls-1" d="M47.86089,69.17044c-3.93057,2.02143-5.20679,3.96288-3.13115,7.8651,2.21158,4.15778,4.68435,5.079,8.87235,2.92516,4.20223-2.16115,3.397-4.336,2.80477-9.02411C55.81462,66.24825,51.92188,67.08192,47.86089,69.17044Z" transform="translate(-0.88322 -0.69359)"/>
      </g>
      <g id="path55">
        <path class="cls-1" d="M60.11914,81.70943c-2.42844-4.07632-1.40676-6.698,2.679-9.11056,3.91194-2.30991,7.14789-1.96779,9.473,1.93512,2.42283,4.06689.33113,5.75315-2.6833,9.4032C66.289,87.93165,62.65933,85.97331,60.11914,81.70943Z" transform="translate(-0.88322 -0.69359)"/>
      </g>
      <g id="path56">
        <path class="cls-1" d="M76.71249,85.09071c-2.20661-3.94867-.81935-6.156,3.19575-8.23929,4.27672-2.21906,7.19681-2.5972,9.5472,1.60877,2.44085,4.36783.21478,6.11119-3.17051,9.79568C82.65529,92.20628,79.16036,89.47111,76.71249,85.09071Z" transform="translate(-0.88322 -0.69359)"/>
      </g>
      <g id="path57">
        <path class="cls-1" d="M93.84736,90.01623c-2.74843-4.24757-2.25715-7.52725,2.21985-9.88356,4.7734-2.51232,8.02038-1.57311,10.95077,2.95568,2.56746,3.96788-.186,5.5134-3.32951,9.04247C100.01531,96.25454,96.73488,94.47876,93.84736,90.01623Z" transform="translate(-0.88322 -0.69359)"/>
      </g>
      <g id="path58">
        <path class="cls-1" d="M111.78522,94.49254c-2.89294-4.2007-2.48616-7.32862,1.92244-9.89362,4.6863-2.72658,7.19153-1.60462,10.26669,2.86069,2.82176,4.09735,1.08707,5.41133-2.02558,9.29231C118.38493,101.19545,114.8777,98.983,111.78522,94.49254Z" transform="translate(-0.88322 -0.69359)"/>
      </g>
      <g id="path59">
        <path class="cls-1" d="M129.49249,97.881c1.04239-4.40129-2.69531-8.17767,1.98934-9.24844,5.52486-1.26282,7.57479-2.24237,10.84472,2.38649,3.07351,4.35081,1.48784,6.14306-1.86835,10.27972C136.80186,105.80534,134.04257,101.3729,129.49249,97.881Z" transform="translate(-0.88322 -0.69359)"/>
      </g>
      <g id="path60">
        <path class="cls-1" d="M149.80794,103.71419c-1.72145-4.8249-2.717-7.94684,1.7684-10.42155,5.203-2.87061,7.7758-1.45593,11.42115,3.23694,3.19536,4.11358,2.51569,6.34445-.8419,10.32671-1.97829,2.34634-3.22641-2.09149-6.29544-2.0841C152.45331,104.78039,150.83924,106.60475,149.80794,103.71419Z" transform="translate(-0.88322 -0.69359)"/>
      </g>
      <g id="path61">
        <path class="cls-1" d="M129.31692,98.21981c.05788,1.15823-.31434,1.17683-.25645,2.33507" transform="translate(-0.88322 -0.69359)"/>
      </g>
      <g id="path62">
        <path class="cls-1" d="M139.83179,100.99909c-.05788.98449.58647,1.02237.52859,2.00686" transform="translate(-0.88322 -0.69359)"/>
      </g>
      <g id="path63">
        <path class="cls-1" d="M142.46462,91.058c0,1.332.68784,1.332.68784,2.66392" transform="translate(-0.88322 -0.69359)"/>
      </g>
      <g id="path64">
        <path class="cls-1" d="M149.44981,104.17257c-.11582.57911.16734.63574.05151,1.21485" transform="translate(-0.88322 -0.69359)"/>
      </g>
      <g id="path65">
        <path class="cls-1" d="M161.83719,107.28553c-.28956.81076-1.01191.55278-1.30147,1.36354" transform="translate(-0.88322 -0.69359)"/>
      </g>
      <g id="path66">
        <path class="cls-1" d="M111.08621,94.95519c.69494,1.15822.92852,1.06919.298,1.82578" transform="translate(-0.88322 -0.69359)"/>
      </g>
      <g id="path67">
        <path class="cls-1" d="M122.3158,97.08191c.05789.75285.054.75315.1119,1.506" transform="translate(-0.88322 -0.69359)"/>
      </g>
      <g id="path68">
        <path class="cls-1" d="M106.27269,83.77643c.05789,1.15824,0,1.16113.0579,2.31936" transform="translate(-0.88322 -0.69359)"/>
      </g>
      <g id="path69">
        <path class="cls-1" d="M104.02718,93.027c0,.57912.02711.57912.02711,1.15823" transform="translate(-0.88322 -0.69359)"/>
      </g>
      <g id="path70">
        <path class="cls-1" d="M93.09867,90.36308c0,1.15823-.48149,1.15823-.48149,2.31647" transform="translate(-0.88322 -0.69359)"/>
      </g>
      <g id="path71">
        <path class="cls-1" d="M76.38389,85.57217c.17373,1.10032.05685,1.11877.23059,2.21908" transform="translate(-0.88322 -0.69359)"/>
      </g>
      <g id="path72">
        <path class="cls-1" d="M87.03439,88.51963c-.05789.86868-.61927.83127-.67716,1.69994" transform="translate(-0.88322 -0.69359)"/>
      </g>
      <g id="path73">
        <path class="cls-1" d="M59.57618,82.08892c.23165,1.15823.81554,1.04145,1.04719,2.19969" transform="translate(-0.88322 -0.69359)"/>
      </g>
      <g id="path74">
        <path class="cls-1" d="M69.424,84.63375c.23165,1.10031.40886,1.063.6405,2.16332" transform="translate(-0.88322 -0.69359)"/>
      </g>
      <g id="path75">
        <path class="cls-1" d="M72.21305,74.773c.40538,1.73736.59663,1.69273,1.002,3.43008" transform="translate(-0.88322 -0.69359)"/>
      </g>
      <g id="path76">
        <path class="cls-1" d="M57.06952,71.34338c.23165,1.67943.03433,1.70664.266,3.38608" transform="translate(-0.88322 -0.69359)"/>
      </g>
      <g id="path77">
        <path class="cls-1" d="M53.125,80.21846c.11583.98449.89128.89326,1.0071,1.87775" transform="translate(-0.88322 -0.69359)"/>
      </g>
      <g id="path78">
        <path class="cls-1" d="M44.08834,77.41888c.17374,1.10032.68755,1.01919.86128,2.1195" transform="translate(-0.88322 -0.69359)"/>
      </g>
      <g id="path79">
        <path class="cls-1" d="M14.70674,43.2759c3.88007.86867,3.84614,1.02021,7.72621,1.88888s4.154,3.79866,7.77233,2.1503c3.19045-1.45343,1.55979-3.27466,2.89175-6.51771s4.31163-3.68056,2.16173-6.44993c-2.99739-3.861-4.50669-1.47188-9.25543-2.63012" transform="translate(-0.88322 -0.69359)"/>
      </g>
      <g id="path80">
        <path class="cls-1" d="M38.96427,40.104c-1.332,4.34336-4.52341,4.51339-2.45623,8.55884,1.87931,3.67779,3.70819,1.40407,7.733,2.33065s4.27507,2.99093,8.035,1.28187c3.33362-1.51528,1.56223-3.1434,2.9521-6.53122s4.95049-3.90192,2.9286-6.955c-2.42784-3.666-4.51962-.7924-8.80507-1.7769" transform="translate(-0.88322 -0.69359)"/>
      </g>
      <g id="path81">
        <path class="cls-1" d="M37.0336,35.02847C39.405,39.95363,39.749,41.43523,41.718,44.90992c.9951,1.75607,4.30617,1.85821,6.86816.94131,2.50736-.89736,4.67532-2.97318,3.24313-5.66569a65.98254,65.98254,0,0,0-3.44555-5.87443,54.0087,54.0087,0,0,0-4.10444-5.41477" transform="translate(-0.88322 -0.69359)"/>
      </g>
      <g id="path82">
        <path class="cls-1" d="M12.60521,29.97111c1.98894,3.10469,1.73842,2.90747,3.98215,6.20574,1.37438,2.02032,2.81817,4.27548,4.18206,6.07934,1.75544,2.32171,5.002,1.85668,7.12153.16222,2.21573-1.77132,3.54466-5.16235,1.65039-7.05662-1.38311-1.3831-3.04961-2.84838-4.4221-4.322-2.30538-2.47521-2.21029-2.16958-4.26846-4.47875" transform="translate(-0.88322 -0.69359)"/>
      </g>
      <g id="path83">
        <path class="cls-1" d="M13.08767,31.12839c3.938.46329,7.51556-1.32913,7.863-3.76142" transform="translate(-0.88322 -0.69359)"/>
      </g>
      <g id="path84">
        <path class="cls-1" d="M37.8129,29.26816c-2.62506,1.46516-2.967,3.91958-1.65488,5.28761,1.17733,1.22745,3.85707,1.71846,6.15762.45863,2.64951-1.45092,2.77073-4.20378,1.50858-5.67674C42.769,28.10622,40.71359,27.63323,37.8129,29.26816Z" transform="translate(-0.88322 -0.69359)"/>
      </g>
      <g id="path85">
        <path class="cls-1" d="M36.36142,23.56384c4.35738.88306,4.3342.99745,8.69158,1.88051,4.356.88277,4.34509.93662,8.70109,1.8194,4.359.88339,4.32359,1.05807,8.68258,1.94146s4.45854,3.25319,8.54238,1.49154c3.29982-1.42345,1.57109-2.94027,2.90245-6.2783,1.33227-3.34033.88653-3.51811,2.2188-6.85844s1.68168-3.201,3.01395-6.54129" transform="translate(-0.88322 -0.69359)"/>
      </g>
      <g id="path86">
        <path class="cls-1" d="M38.95209,18.45476c3.938.57912,3.889,1.70607,7.86862,1.631,2.20654-.04163-1.48421-1.57288-.67345-4.35262s-.1435-6.48136,4.18889-9.57593c1.47973-1.057,1.15689,1.05132,2.25721,2.4991" transform="translate(-0.88322 -0.69359)"/>
      </g>
      <g id="path87">
        <path class="cls-1" d="M101.52957,77.80811c-.37232,1.48992-.22554.39354-.22554-3.08114s4.724-2.89845,4.95568-.582a43.236,43.236,0,0,0,.70122,4.379" transform="translate(-0.88322 -0.69359)"/>
      </g>
      <g id="path88">
        <path class="cls-1" d="M109.09823,38.88536c-.3723,1.48993.30815.5198.30815-2.95488s4.99259-2.92815,5.22424-.6117-.29913,2.2751.06587,4.46509" transform="translate(-0.88322 -0.69359)"/>
      </g>
      <g id="path89">
        <path class="cls-1" d="M107.12873,54.91174c-.37229,1.48993-.03.41924-.03-3.05545s4.86243-2.92155,5.09408-.6051-.2973,2.27919.06771,4.46918" transform="translate(-0.88322 -0.69359)"/>
      </g>
      <g id="path90">
        <path class="cls-1" d="M135.66586,63.31675c-.37229,1.48993.35113.48543.35113-2.98926s4.22979-2.86992,4.46143-.55347.79349,2.13182,1.1585,4.32181" transform="translate(-0.88322 -0.69359)"/>
      </g>
      <g id="path91">
        <path class="cls-1" d="M83.763,72.68241c-.37233,1.48992-.53171.39307-.53171-3.08162s4.83618-2.87923,5.06782-.56278.55638,2.16513.92137,4.35512" transform="translate(-0.88322 -0.69359)"/>
      </g>
      <g id="path92">
        <path class="cls-1" d="M68.64124,69.60124c-.37232,1.48992-.6135.44186-.6135-3.03282s5.5384-2.92176,5.77-.60531.05812,2.21983.42311,4.40982" transform="translate(-0.88322 -0.69359)"/>
      </g>
      <g id="path93">
        <path class="cls-1" d="M51.683,66.29451c-.37232,1.48992.25134.55728.25134-2.9174s5.223-2.93051,5.45461-.61406a43.74442,43.74442,0,0,0,.57418,4.3788" transform="translate(-0.88322 -0.69359)"/>
      </g>
      <g id="path94">
        <path class="cls-1" d="M36.26177,62.94745c-.37232,1.48992.419.51587.419-2.95881s4.63568-2.90512,4.86733-.58867-.12871,2.262.23628,4.452" transform="translate(-0.88322 -0.69359)"/>
      </g>
      <g id="path95">
        <path class="cls-1" d="M118.09359,81.96528c-.37229,1.48994-.26279.47349-.26279-3.00119s5.09487-2.89982,5.32652-.58337.17526,2.21493.54026,4.40492" transform="translate(-0.88322 -0.69359)"/>
      </g>
      <g id="path96">
        <path class="cls-1" d="M136.805,85.45711c-.3723,1.48993-.87514.37013-.87514-3.10455s5.35-2.90546,5.58159-.589.12542,2.21948.49042,4.40947" transform="translate(-0.88322 -0.69359)"/>
      </g>
      <g id="path97">
        <path class="cls-1" d="M156.59318,89.72124c-.3723,1.48993.01253.42106.01253-3.05363s4.8315-2.922,5.06315-.60554-.0087,2.2308.35631,4.42079" transform="translate(-0.88322 -0.69359)"/>
      </g>
      <g id="path98">
        <path class="cls-1" d="M150.77549,54.5317c.81076-2.0269,1.32912-1.92815,1.72128-4.07568.83543-4.575-3.34523-6.73606.4293-9.4529,4.00657-2.88384,5.00934.69983,9.87391,1.53955s5.02259.30354,9.58562,2.18712c1.12923.46614-.6125,1.39217.435,2.0207,2.1236,1.27417,3.54157.33293,4.46816,1.37534s-.92775,7.37324-1.62269,7.72069-1.74883-.90416-3.63316-.14024c-1.426.57812.403,2.87247-1.12832,3.02392-4.81481.47619-4.71593-1.773-9.46468-2.6996s-4.748-.93053-9.49673-1.85712" transform="translate(-0.88322 -0.69359)"/>
      </g>
      <g id="path99">
        <path class="cls-1" d="M153.30328,50.90827c3.9959.69494,3.99344.7091,7.98933,1.404s4.13373-.09759,8.12962.59735" transform="translate(-0.88322 -0.69359)"/>
      </g>
      <g id="path100">
        <path class="cls-1" d="M152.98176,34.75416c.69494-2.08482,1.47729-1.85974,1.89873-4.01653.56913-2.91257.06873-2.98681.35829-5.9403" transform="translate(-0.88322 -0.69359)"/>
      </g>
      <g id="path101">
        <path class="cls-1" d="M156.34535,31.28588c4.40128.72389,4.506.087,8.90731.81088s4.40363.70959,8.80491,1.43349" transform="translate(-0.88322 -0.69359)"/>
      </g>
      <g id="path102">
        <path class="cls-1" d="M155.31542,35.47075c4.40127.86867,4.475.49534,8.87623,1.364s4.51266,3.507,8.85572,2.383c2.13487-.55256.45664-2.52941.97785-4.67215" transform="translate(-0.88322 -0.69359)"/>
      </g>
      <g id="path103">
        <path class="cls-1" d="M178.31535,29.05336c.69494,3.82216.66038,3.91491-.94027,7.54311" transform="translate(-0.88322 -0.69359)"/>
      </g>
      <g id="path104">
        <path class="cls-1" d="M123.18215,49.67839c-2.457-.3276-1.73534-4.06459-.1792-3.49132a21.95685,21.95685,0,0,0,3.60959.95925,4.16947,4.16947,0,0,0,2.2695.19964c.98279-.2457,2.06943.93045,2.397,1.83134a2.01857,2.01857,0,0,1-3.0723,2.11589c-2.29318-1.22849-2.25892-1.816-4.97754-1.856C123.04433,49.43446,123.18218,49.67839,123.18215,49.67839Z" transform="translate(-0.88322 -0.69359)"/>
      </g>
      <g id="path105">
        <path class="cls-1" d="M126.35387,28.57038c-2.457-.3276-1.74148-3.81652-.18534-3.24325s2.65268,1.38859,3.47167,1.55239a4.88072,4.88072,0,0,0,2.409-.10383,2.62173,2.62173,0,0,1,2.64656,1.54954c.3276.90089-.75654,2.86134-3.04971,1.63286a11.06434,11.06434,0,0,0-5.25529-1.64838Z" transform="translate(-0.88322 -0.69359)"/>
      </g>
      <g id="path106">
        <path class="cls-1" d="M125.98733,39.28236c-2.457-.3276-1.6078-4.31194-.05166-3.73866s2.59106,1.45445,3.41,1.61824a4.51642,4.51642,0,0,0,2.34631.04469,3.10059,3.10059,0,0,1,3.00728,1.49836c.3276.90089-1.05921,2.91171-3.35239,1.68323s-2.5885-1.57439-5.30109-1.75977C125.93929,38.62117,125.98736,39.28236,125.98733,39.28236Z" transform="translate(-0.88322 -0.69359)"/>
      </g>
      <g id="path107">
        <path class="cls-1" d="M94.48815,31.38662c-2.457-.32759-1.64428-4.14769-.08813-3.57441s2.6455,1.23446,3.4645,1.39825,1.45373.93557,2.43651.68988a1.86821,1.86821,0,0,1,2.19764,1.26128,1.90383,1.90383,0,0,1-2.96556,1.995c-2.29318-1.22849-2.28111-2.029-4.98541-2.31065C94.49279,30.84023,94.48818,31.38663,94.48815,31.38662Z" transform="translate(-0.88322 -0.69359)"/>
      </g>
      <g id="path108">
        <path class="cls-1" d="M92.13129,39.40594c-2.457-.3276-1.62855-4.11825-.07241-3.545s2.55156,1.63378,3.37057,1.79758a4.82292,4.82292,0,0,0,2.33417-.28778c.9828-.24569,2.46249.86706,2.79009,1.768a2.24288,2.24288,0,0,1-3.38852,2.14275,10.43368,10.43368,0,0,0-5.06459-1.662Z" transform="translate(-0.88322 -0.69359)"/>
      </g>
      <g id="path109">
        <path class="cls-1" d="M88.03883,48.41315c-2.457-.3276-1.53544-4.49684.0207-3.92356s2.59584,1.25967,3.41484,1.42347,1.41192,1.19991,2.3947.95421a2.041,2.041,0,0,1,2.39666,1.1621c.3276.90089-.66375,2.899-2.95693,1.6705s-2.50078-1.706-5.21216-1.90844C87.99925,47.78416,88.03885,48.41315,88.03883,48.41315Z" transform="translate(-0.88322 -0.69359)"/>
      </g>
    </g>
  </g>
</svg>
